<?xml version="1.0" standalone="no"?>
<!DOCTYPE svg PUBLIC "-//W3C//DTD SVG 1.1//EN" "http://www.w3.org/Graphics/SVG/1.1/DTD/svg11.dtd" >
<!--
2013-9-30: Created.
-->
<svg>
<metadata>
Created by iconfont
</metadata>
<defs>

<font id="iconfont" horiz-adv-x="1024" >
  <font-face
    font-family="iconfont"
    font-weight="500"
    font-stretch="normal"
    units-per-em="1024"
    ascent="896"
    descent="-128"
  />
    <missing-glyph />
    
    <glyph glyph-name="x" unicode="x" horiz-adv-x="1001"
d="M281 543q-27 -1 -53 -1h-83q-18 0 -36.5 -6t-32.5 -18.5t-23 -32t-9 -45.5v-76h912v41q0 16 -0.5 30t-0.5 18q0 13 -5 29t-17 29.5t-31.5 22.5t-49.5 9h-133v-97h-438v97zM955 310v-52q0 -23 0.5 -52t0.5 -58t-10.5 -47.5t-26 -30t-33 -16t-31.5 -4.5q-14 -1 -29.5 -0.5
t-29.5 0.5h-32l-45 128h-439l-44 -128h-29h-34q-20 0 -45 1q-25 0 -41 9.5t-25.5 23t-13.5 29.5t-4 30v167h911zM163 247q-12 0 -21 -8.5t-9 -21.5t9 -21.5t21 -8.5q13 0 22 8.5t9 21.5t-9 21.5t-22 8.5zM316 123q-8 -26 -14 -48q-5 -19 -10.5 -37t-7.5 -25t-3 -15t1 -14.5
t9.5 -10.5t21.5 -4h37h67h81h80h64h36q23 0 34 12t2 38q-5 13 -9.5 30.5t-9.5 34.5q-5 19 -11 39h-368zM336 498v228q0 11 2.5 23t10 21.5t20.5 15.5t34 6h188q31 0 51.5 -14.5t20.5 -52.5v-227h-327z" />
    

    
    <glyph glyph-name="fanhui" unicode="&#59290;" d="M511.00384 860.26432c-262.57546667 0-476.20426667-213.6288-476.20426667-476.20426667 0-262.57546667 213.6288-476.20426667 476.20426667-476.20426666 262.57653333 0 476.20533333 213.6288 476.20533333 476.20426666C987.20917333 646.63445333 773.58037333 860.26432 511.00384 860.26432zM511.00384-32.62112000000002c-229.76042667 0-416.67893333 186.92064-416.67893333 416.68117333 0 229.76042667 186.91850667 416.67893333 416.67893333 416.67893334 229.7616 0 416.67893333-186.91850667 416.67893333-416.67893334C927.68394667 154.29962666999995 740.76544-32.62112000000002 511.00384-32.62112000000002zM749.10816 413.82101333H344.752128l127.7712 127.7712c11.62613333 11.62613333 11.62613333 30.46112 0 42.08725334-11.6272 11.62613333-30.46112 11.62613333-42.08608 0L251.8592 405.10368c-11.62613333-11.6272-11.62613333-30.46112 0-42.08725333L430.43605333 184.43957333000003c5.81194667-5.81088 13.4272-8.71957333 21.04362667-8.71957333s15.22944 2.90869333 21.04362667 8.71957333c11.62613333 11.62613333 11.62613333 30.46112 0 42.08608L344.75210667 354.29685333h404.35602773c16.45066667 0 29.76213333 13.34090667 29.76213333 29.7632C778.87018667 400.50965333 765.55765333 413.82101333 749.10816 413.82101333z"  horiz-adv-x="1024" />

    
    <glyph glyph-name="quanping" unicode="&#59291;" d="M868.42954667 860.73728H154.13630293c-65.65728 0-119.04938667-53.39221333-119.04938666-119.04938667v-714.293248c0-65.65728 53.39221333-119.04938667 119.04938666-119.04938666h714.293248c65.62997333 0 119.04938667 53.39221333 119.04938667 119.04938666V741.68784213C987.47893333 807.34506667 934.05952 860.73728 868.42954667 860.73728zM927.95477333 27.394559999999956c0-32.81386667-26.71029333-59.52522667-59.52522666-59.52522667H154.13630293c-32.84341333 0-59.52522667 26.71136-59.52522666 59.52522667V741.68784213c0 32.81386667 26.68192 59.52522667 59.52522666 59.52522667h714.293248c32.81493333 0 59.52522667-26.71136 59.52522667-59.52522667V27.394594129999973zM779.14442667 682.16256H630.33070933c-16.44949333 0-29.76096-13.31146667-29.76096-29.76213333s13.31253333-29.7632 29.76096-29.7632h76.96438614L579.52832 494.87050667c-11.6272-11.62613333-11.6272-30.46005333 0-42.08608 5.81194667-5.81194667 13.4272-8.71850667 21.04256-8.71850667s15.22837333 2.90656 21.04362667 8.71850667l127.76789333 127.76896v-76.96329387c0-16.45066667 13.31253333-29.76213333 29.7632-29.76213333 16.42112 0 29.76213333 13.31146667 29.76213333 29.76213333V652.40159573C808.90645333 668.8522666700001 795.56554667 682.16256 779.14442667 682.16256zM315.27072 622.6384h76.96329387c16.42112 0 29.76213333 13.31253333 29.76213333 29.7632s-13.34090667 29.76213333-29.76213333 29.76213333H243.42254933c-16.45066667 0-29.76213333-13.31146667-29.76213333-29.76213333v-148.81150293c0-16.45066667 13.31146667-29.76213333 29.76213333-29.76213334 16.42218667 0 29.7632 13.31146667 29.7632 29.76213334v76.96329386l127.76789334-127.76896c5.81301333-5.81194667 13.4272-8.71850667 21.04362666-8.71850666s15.22944 2.90656 21.04362667 8.71850666c11.62496 11.62613333 11.62496 30.46005333 0 42.08608L315.27072 622.6384zM400.9536 316.29589333L273.18570667 188.52906667000002v76.9622016c0 16.45173333-13.34090667 29.7632-29.7632 29.7632-16.45066667 0-29.76213333-13.31253333-29.76213334-29.7632v-148.81041067c0-16.45066667 13.31146667-29.76213333 29.76213334-29.76213333h148.81150293c16.42112 0 29.76213333 13.31253333 29.76213333 29.76213333 0 16.45173333-13.34090667 29.7632-29.76213333 29.7632h-76.96329387l127.76896 127.76789333c11.62496 11.6272 11.62496 30.46005333 0 42.08501334C431.41365333 327.92298667 412.57973333 327.92298667 400.9536 316.29589333zM779.14442667 295.25440000000003c-16.45173333 0-29.7632-13.31253333-29.7632-29.7632v-76.9622016L621.61333333 316.29589333c-11.6272 11.6272-30.46112 11.6272-42.08501333 0-11.6272-11.62613333-11.6272-30.45898667 0-42.08501333l127.76789333-127.76789333h-76.96438613c-16.44949333 0-29.76096-13.31253333-29.76096-29.7632 0-16.45066667 13.31253333-29.76213333 29.76096-29.76213334h148.8125952c16.42112 0 29.76213333 13.31253333 29.76213333 29.76213334v148.81041066C808.90645333 281.94186666999997 795.56554667 295.25440000000003 779.14442667 295.25440000000003z"  horiz-adv-x="1024" />

    
    <glyph glyph-name="list-alt" unicode="&#59267;" d="M256 512h128v128h-128v-128zM256 320h128v128h-128v-128zM256 128h128v128h-128v-128zM448 512h320v128h-320v-128zM832 896h-640c-106.048 0-192-85.952-192-192v-640c0-105.984 85.952-192 192-192h640c106.048 0 192 86.016 192 192v640c0 106.048-85.952 192-192 192zM896 64c0-35.392-28.608-64-64-64h-640c-35.392 0-64 28.608-64 64v640c0 35.328 28.608 64 64 64h640c35.392 0 64-28.672 64-64v-640zM448 320h320v128h-320v-128zM448 128h320v128h-320v-128z"  horiz-adv-x="1024" />

    
    <glyph glyph-name="list2" unicode="&#59104;" d="M128.326 639.676h768c35.346 0 64 28.654 64 64s-28.654 64-64 64h-768c-35.346 0-64-28.654-64-64s28.654-64 64-64zM896.326 447.653h-768c-35.346 0-64-28.654-64-64 0-35.345 28.654-63.999 64-63.999h768c35.346 0 64 28.654 64 63.999 0 35.345-28.655 64-64 64zM896.326 127.629h-768c-35.346 0-64-28.654-64-64s28.654-64 64-64h768c35.346 0 64 28.654 64 64s-28.655 64-64 64z"  horiz-adv-x="1024" />

    
    <glyph glyph-name="tjfz" unicode="&#59244;" d="M517.332-95.625l-484.979 484.959 484.979 484.957 484.979-484.957-484.979-484.959zM120.775 389.334l396.557-396.541 396.557 396.541-396.556 396.54-396.558-396.54z"  horiz-adv-x="1024" />

    
    <glyph glyph-name="p-icon-play" unicode="&#59197;" d="M151.345 816.498c0 5.515 2.933 10.877 8.098 13.743 5.186 2.867 11.271 2.495 15.954-0.438l689.903-432.481c4.421-2.779 7.354-7.703 7.354-13.305 0-5.624-2.932-10.548-7.354-13.328l-689.902-432.502c-4.684-2.932-10.768-3.282-15.954-0.438-5.165 2.889-8.098 8.229-8.098 13.788v864.961h-0.001z"  horiz-adv-x="1024" />

    
    <glyph glyph-name="weibo" unicode="&#58933;" d="M-56.57 948.89l0 0 0 0zM743.314 420.4q-16.558 3.318-21.501 9.921t-1.659 12.145l3.318 5.508q1.094 1.094 2.224 3.318t4.414 9.391 4.978 14.334 2.753 17.652-0.564 19.877-6.638 20.407-13.805 19.877q-15.463 15.463-40.284 19.877t-49.641 0.564-46.885-9.921-36.4-11.581l-14.334-6.638q-11.05-3.318-18.218-4.414t-11.05 0.564-6.073 3.318-1.659 7.732 1.094 10.485 2.753 13.805 3.318 14.899q0 13.239-1.659 24.819t-7.167 25.914-15.994 23.161-26.48 14.334-41.379 3.318-57.372-13.239q-38.624-13.239-78.342-39.154t-68.951-54.052-53.523-54.618-37.53-43.038l-12.145-17.652q-36.4-47.451-54.052-94.901t-16.558-71.707l0-23.161q6.638-52.958 32.551-94.901t61.785-67.857 84.415-44.132 93.242-26.48 94.337-11.581q81.662-6.638 169.36 12.675t163.289 66.763 106.481 113.649q18.747 38.624 19.313 72.836t-11.581 55.712-31.457 38.06-36.4 24.29-30.327 9.921zM406.816 77.265q-119.156-5.508-202.443 46.356t-83.285 131.301q0 78.342 82.756 135.15t203.007 62.35 203.007-39.718 82.756-123.569q0-79.438-84.415-142.882t-201.348-68.951zM374.83 382.906q-31.986-3.318-57.372-14.899t-39.718-26.48-24.29-31.986-13.805-33.646-4.978-30.327-1.094-21.501l1.094-8.827 0-4.414q0-3.318 2.224-13.239t6.073-18.218 12.675-18.218 20.972-16.558q72.836-35.306 135.714-21.501t101.503 63.443q15.463 18.747 20.407 46.356t-2.224 55.712-24.819 51.299-52.394 35.871-80.003 7.167zM335.11 174.355q-6.638-1.094-12.675-0.564t-11.05 2.224-9.921 3.847-8.261 6.073-6.073 7.732-4.414 8.827-1.659 10.485q0 12.145 6.638 23.725t18.218 19.877 25.914 9.391q9.921 1.094 19.313-0.564t15.994-5.508 11.581-8.827 7.167-11.581 2.224-14.334q0-12.145-7.167-23.161t-19.313-18.747-26.48-8.827zM428.882 253.793q-7.732-5.508-15.994-4.978t-11.581 7.167l-2.224 4.414q-1.094 2.224-1.094 4.414l0 4.414q0 3.318 1.094 5.508l2.224 4.414q1.094 2.224 3.318 3.318l3.318 4.414q8.827 6.638 17.088 5.508t11.581-8.827q3.318-4.414 2.753-9.921t-3.318-10.485-7.167-9.391zM820.562 484.409q6.638 0 12.145 3.318t8.827 8.261 4.414 10.485q1.094 1.094 1.094 3.318 13.239 125.794-88.265 143.446-29.798 5.508-55.182 1.094-7.732 0-13.239-3.847t-9.391-9.921-3.847-12.675q0-11.05 7.732-18.747t18.747-7.732q86.075 19.877 92.677-55.182 2.224-18.747-2.224-35.306 0-11.05 7.732-18.747t18.747-7.732zM801.815 795.522q-48.545 11.05-130.207-4.414-1.094 0-2.224-1.094l-1.094-2.224-1.094-1.094q-12.145-3.318-19.877-13.805t-7.732-22.63q0-16.558 11.05-27.574t26.48-11.05l3.318 0q1.094 0 4.978 1.094t8.261 1.659 9.391 2.224 8.827 3.318 14.899 1.659 27.044-1.659 35.306-8.261 38.624-16.558 38.624-27.574 33.646-40.813q28.704-65.104 11.05-125.794 0-1.094-0.564-2.224t-1.659-5.508-2.224-8.261-2.224-9.921-1.094-10.485q0-9.921 5.508-16.558t13.805-9.391 19.313-2.753q30.893 0 36.4 37.53 13.239 43.038 14.899 82.192t-5.508 68.951-21.501 55.712-33.116 44.132-41.943 33.116-44.697 23.725-44.697 14.334z"  horiz-adv-x="1024" />

    
    <glyph glyph-name="envelope2" unicode="&#59269;" d="M955.003 105.033c1.837 5.39 3.057 11.056 3.057 17.036v495.484c0 5.678-1.136 11.056-2.798 16.202l-291.097-249.24 290.838-279.482zM511.84 324.408l115.474 93.95 292.324 250.219c-4.802 1.426-9.78 2.428-15.023 2.428l-785.506-0c-5.257 0-10.246-1.002-15.054-2.44l292.494-250.352 115.292-93.805zM904.615 68.619c5.025 0 9.805 0.93 14.426 2.247l-293.678 282.091-113.523-92.379-113.341 92.235-293.798-281.959c4.615-1.304 9.388-2.234 14.408-2.234h785.506zM68.461 633.755c-1.662-5.147-2.798-10.524-2.798-16.202v-495.483c0-5.992 1.221-11.659 3.057-17.036l290.972 279.361-291.231 249.36z"  horiz-adv-x="1024" />

    
    <glyph glyph-name="book" unicode="&#59268;" d="M43.993 792.062v0 0zM973.309 521.043q22.687-32.323 10.208-73.141l-155.918-513.699q-10.78-36.292-43.373-60.948t-69.457-24.671h-523.335q-43.659 0-84.206 30.339t-56.423 74.554q-13.606 37.991-1.127 72.013 0 2.27 1.699 15.304t2.27 20.972q0.572 4.541-1.699 12.193t-1.699 11.050q1.127 6.239 4.541 11.907t9.351 13.32 9.351 13.32q13.034 21.544 25.513 51.883t17.003 51.883q1.699 5.668 0.286 17.003t-0.286 15.876q1.699 6.239 9.637 15.876t9.637 13.034q11.907 20.416 23.814 52.168t14.177 51.025q0.572 5.096-1.413 18.146t0.286 15.876q2.27 7.366 12.479 17.289t12.479 12.764q10.78 14.749 24.1 47.914t15.59 54.709q0.572 4.541-1.699 14.463t-1.127 15.019q1.127 4.541 5.096 10.208t10.208 13.034 9.637 11.907q4.541 6.811 9.351 17.289t8.51 19.845 9.065 20.416 11.050 18.146 15.019 13.32 20.416 6.525 26.926-3.112l-0.572-1.699q21.544 5.096 28.91 5.096h431.493q41.96 0 64.631-31.752t10.208-73.712l-155.362-513.699q-20.416-67.473-40.547-87.032t-72.855-19.559h-492.727q-15.304 0-21.544-8.51-6.239-9.065-0.572-24.385 13.606-39.69 81.65-39.69h523.335q16.448 0 31.752 8.795t19.845 23.528l170.095 559.628q3.969 12.479 2.842 32.323 21.544-8.51 33.451-24.385zM370.022 519.9q-2.27-7.366 1.127-12.764t11.335-5.382h344.731q7.366 0 14.463 5.382t9.351 12.764l11.907 36.292q2.27 7.366-1.127 12.764t-11.335 5.382h-344.731q-7.366 0-14.463-5.382t-9.351-12.764zM322.95 374.746q-2.27-7.366 1.127-12.764t11.335-5.382h344.731q7.366 0 14.463 5.382t9.351 12.764l11.907 36.292q2.27 7.366-1.127 12.764t-11.335 5.382h-344.731q-7.366 0-14.463-5.382t-9.351-12.764z"  horiz-adv-x="1024" />

    
    <glyph glyph-name="bookmark" unicode="&#58946;" d="M150.821705 888.062016 150.821705 888.062016 150.821705 888.062016ZM810.801612 815.492961q13.034171 0 24.941147-5.096186 18.717767-7.36645 29.767442-23.242419t11.049674-35.149395l0-730.866109q0-19.273426-11.049674-35.149395t-29.767442-23.242419q-10.779783-4.540527-24.941147-4.540527-27.211411 0-47.056372 18.146233l-250.046512 240.409798-250.046512-240.409798q-20.416496-18.717767-47.056372-18.717767-13.034171 0-24.941147 5.096186-18.717767 7.36645-29.767442 23.242419t-11.049674 35.149395l0 730.866109q0 19.273426 11.049674 35.149395t29.767442 23.242419q11.906977 5.096186 24.941147 5.096186l594.221643 0z"  horiz-adv-x="1024" />

    
    <glyph glyph-name="bar-chart" unicode="&#59275;" d="M7.938 792.062v0 0zM298.246 211.462v-217.723h-145.154v217.723h145.154zM515.969 501.754v-508.031h-145.154v508.031h145.154zM733.692 356.6v-362.877h-145.154v362.877h145.154zM951.431 574.339v-580.6h-145.154v580.6h145.154zM1024-60.7v689.477q0 7.366-5.382 12.764t-12.764 5.382h-907.2q-7.366 0-12.764-5.382t-5.382-12.764v-689.477q0-7.366 5.382-12.764t12.764-5.382h907.2q7.366 0 12.764 5.382t5.382 12.764zM1096.569 628.762v-689.477q0-37.42-26.656-64.075t-64.075-26.656h-907.2q-37.42 0-64.075 26.656t-26.656 64.075v689.477q0 37.42 26.656 64.075t64.075 26.656h907.2q37.42 0 64.075-26.656t26.656-64.075z"  horiz-adv-x="1104" />

    
    <glyph glyph-name="thumbs-down-alt" unicode="&#59157;" d="M146.299 640.009q0 14.847-10.861 25.709t-25.709 10.861-25.709-10.861-10.861-25.709 10.861-25.709 25.709-10.861 25.709 10.861 10.861 25.709zM804.561 310.878q0 20.004-12.288 46.298t-30.573 26.842q8.557 9.728 14.299 27.135t5.705 31.706q0 39.423-30.28 67.984 10.276 18.285 10.276 39.423t-9.984 41.983-27.135 29.987q2.852 17.151 2.852 31.999 0 48.565-28.013 72.007t-77.712 23.441h-73.14q-74.859 0-195.431-41.727-2.852-1.134-16.566-5.998t-20.296-7.131-20.004-6.583-21.723-6.29-18.87-3.73-17.993-1.719h-18.285v-365.701h18.285q9.143 0 20.296-5.156t22.856-15.433 22.015-20.296 22.856-25.16 19.711-24.283 17.993-23.441 13.129-17.151q31.414-38.837 43.994-52.003 23.441-24.575 34.010-62.571t17.444-71.714 21.723-48.565q54.855 0 73.14 26.842t18.285 82.868q0 33.718-27.428 91.718t-27.428 91.133h201.136q28.561 0 50.869 22.015t22.271 51.125zM877.701 310.293q0-58.841-43.445-102.287t-102.835-43.445h-100.568q27.428-56.574 27.428-109.71 0-67.435-20.004-106.273-20.004-39.423-58.293-58t-86.269-18.578q-29.146 0-51.418 21.138-19.419 18.87-30.865 46.846t-14.555 51.71-9.984 48.273-17.7 36.57q-27.428 28.561-61.145 72.555-57.708 74.859-78.297 88.573h-156.557q-30.28 0-51.71 21.43t-21.43 51.71v365.701q0 30.28 21.43 51.71t51.71 21.43h164.566q12.58 0 78.845 22.856 73.14 25.16 127.41 37.704t114.282 12.58h63.998q80.015 0 129.422-45.128t48.858-123.424v-2.852q34.303-43.994 34.303-101.702 0-12.58-1.719-24.575 21.723-38.289 21.723-82.283 0-20.552-5.156-39.423 28.013-42.275 28.013-93.144z"  horiz-adv-x="1024" />

    
    <glyph glyph-name="thumbs-up-alt" unicode="&#59128;" d="M146.322 128q0 14.848-10.862 25.71t-25.71 10.862-25.71-10.862-10.862-25.71 10.862-25.71 25.71-10.862 25.71 10.862 10.862 25.71zM804.608 457.143q0 29.147-22.272 51.127t-50.871 22.016h-201.143q0 33.134 27.429 91.136t27.429 91.721q0 55.991-18.286 82.871t-73.143 26.843q-14.848-14.848-21.723-48.567t-17.445-71.717-34.011-62.574q-12.581-13.129-43.995-52.005-2.304-2.853-13.129-17.152t-17.993-23.442-19.712-24.283-22.857-25.161-22.016-20.297-22.857-15.433-20.297-5.157h-18.286v-365.714h18.286q7.424 0 17.993-1.719t18.871-3.73 21.723-6.29 20.005-6.583 20.297-7.131 16.567-5.998q120.576-41.728 195.438-41.728h69.157q109.714 0 109.714 95.415 0 14.848-2.853 32 17.152 9.143 27.136 29.989t9.984 41.984-10.277 39.424q30.281 28.562 30.281 67.986 0 14.299-5.705 31.707t-14.299 27.136q18.286 0.585 30.574 26.843t12.288 46.299zM877.751 457.728q0-50.871-28.014-93.147 5.157-18.871 5.157-39.424 0-43.995-21.723-82.286 1.719-11.995 1.719-24.576 0-57.71-34.304-101.705 0.585-79.433-48.567-125.44t-129.719-46.007h-73.728q-54.857 0-108.288 12.873t-123.721 37.413q-66.304 22.857-78.848 22.857h-164.571q-30.281 0-51.712 21.431t-21.431 51.712v365.714q0 30.281 21.431 51.712t51.712 21.431h156.562q20.553 13.714 78.299 88.576 33.134 42.862 61.147 73.143 13.714 14.299 20.297 48.859t17.445 72.302 35.438 61.696q22.272 21.138 51.419 21.138 48.018 0 86.272-18.578t58.295-58.002 20.005-106.277q0-53.138-27.429-109.714h100.571q59.429 0 102.839-43.447t43.447-102.29z"  horiz-adv-x="1025" />

    
    <glyph glyph-name="pinterest-sign" unicode="&#59277;" d="M816.105 831.144h-608.209c-79.030 0-143.117-64.087-143.117-143.117v-608.055c0-79.184 64.087-143.117 143.117-143.117h608.209c79.030 0 143.117 63.933 143.117 143.117v608.055c0 79.030-64.087 143.117-143.117 143.117zM248.874 77.199c2.004 66.397 152.977 288.082 185.945 320.588-10.63 15.098-17.1 33.277-17.1 53.15 0 50.838 40.979 91.971 91.816 91.971 50.84 0 91.972-41.133 91.972-91.971s-41.132-91.971-91.972-91.971c-19.41 0-37.436 6.162-52.378 16.483-20.182-21.106-130.638-262.201-134.49-322.746-1.232-22.953-75.641-41.748-73.793 24.496zM512.001 182.727c-22.955 0-45.755 2.927-67.785 8.473-12.171 2.927-19.566 15.406-16.483 27.575 3.235 12.171 15.713 19.565 27.73 16.483 18.333-4.622 37.436-6.932 56.539-6.932 127.557 0 231.389 103.678 231.389 231.237s-103.832 231.391-231.389 231.391c-127.558 0-231.392-103.833-231.392-231.391 0-41.594 11.401-82.419 32.506-118.006 6.47-10.784 2.927-24.803-7.857-31.273-10.784-6.317-24.803-2.927-31.274 8.010-25.419 42.519-38.822 91.509-38.822 141.268 0 152.668 124.322 276.837 276.838 276.837 152.668 0 276.836-124.168 276.836-276.837 0.001-152.514-124.167-276.836-276.835-276.836z"  horiz-adv-x="1024" />

    
    <glyph glyph-name="twitter-sign" unicode="&#59276;" d="M1023.8 611.8c-0.2 16.3-0.3 23-0.4 30.7-0.4 23-1.9 46.2-5.8 67-4.3 22.6-10 43.2-20.5 63.8-10.6 20.9-25.1 38.9-40.8 55-16.1 15.7-34.2 30.2-55 40.8-20.6 10.4-41.1 16.2-63.8 20.5-20.8 3.9-44 5.4-67 5.8-7.7 0.1-14.4 0.2-30.7 0.4-15.6 0.1-28.3 0.2-37.7 0.2-47.6 0-332.6 0-380.3 0-9.4 0-22.1-0.1-37.6-0.2-16.3-0.2-23-0.3-30.7-0.4-23-0.4-46.2-1.9-67-5.8-22.6-4.3-43.2-10-63.8-20.5-20.9-10.6-38.9-25.1-55-40.8-15.7-16.1-30.2-34.2-40.8-55-10.4-20.6-16.2-41.1-20.5-63.8-3.9-20.8-5.4-44-5.8-67-0.1-7.7-0.2-14.4-0.4-30.7-0.1-15.6-0.2-28.3-0.2-37.7v-380.3c0-9.4 0.1-22.1 0.2-37.6 0.2-16.3 0.3-23 0.4-30.7 0.4-23 1.9-46.2 5.8-67 4.3-22.6 10-43.2 20.5-63.8 10.6-20.9 25.1-38.9 40.8-55 16.1-15.7 34.2-30.2 55-40.8 20.6-10.4 41.1-16.2 63.8-20.5 20.8-3.9 44-5.4 67-5.8 7.7-0.1 14.4-0.2 30.7-0.4 15.5-0.1 28.2-0.2 37.6-0.2 47.6 0 332.6 0 380.3 0 9.4 0 22.1 0.1 37.6 0.2 16.3 0.2 23 0.3 30.7 0.4 23 0.4 46.2 1.9 67 5.8 22.6 4.3 43.2 10 63.8 20.5 20.9 10.6 38.9 25.1 55 40.8 15.7 16.1 30.2 34.2 40.8 55 10.4 20.6 16.2 41.1 20.5 63.8 3.9 20.8 5.4 44 5.8 67 0.1 7.7 0.2 14.4 0.4 30.7 0.1 15.5 0.2 28.2 0.2 37.6v380.3c0.1 9.4 0 22.1-0.1 37.7zM807 532.7c-3.4-257.3-168-433.6-413.6-444.7-101.3-4.6-174.7 28.1-238.6 68.7 74.9-12 167.7 18 217.4 60.5-73.4 7.2-116.8 44.5-137.2 104.6 21.2-3.7 43.5-2.7 63.7 1.6-66.2 22.2-113.5 63.1-116 148.9 18.6-8.5 38-16.4 63.7-18-49.6 28.2-86.2 131.2-44.2 199.4 73.6-80.7 162.1-146.5 307.4-155.4-36.5 155.9 170.2 240.5 256.6 135.7 36.6 7.1 66.3 20.9 94.9 36-11.8-36.2-34.5-61.5-62.1-81.8 30.4 4.1 57.2 11.5 80.2 22.9-14.2-29.5-45.4-56.1-72.2-78.4z"  horiz-adv-x="1024" />

    
    <glyph glyph-name="save1" unicode="&#59079;" d="M541.062 640.015h54.57c16.022 0 29.032 13.010 29.032 29.032v136.485c0 16.022-13.010 29.032-29.032 29.032h-54.57c-16.022 0-29.032-13.010-29.032-29.032v-136.485c0-16.082 13.010-29.032 29.032-29.032zM86.071-128h851.858c47.523 0 86.071 38.91 86.071 86.914l0 747.717c-37.223 37.223-154.434 155.277-188.465 189.308l-749.464-0c-47.523 0-86.071-38.91-86.071-86.914v-850.111c0.060-47.944 38.548-86.914 86.071-86.914zM153.651-97.282v112.633h716.758v-112.633h-716.758zM153.651 25.591v122.873h716.758v-122.873l-716.758-0zM153.651 865.282h532.449v-208.221c0-32.043-25.96-58.063-58.063-58.063h-416.322c-32.104 0.060-58.063 26.020-58.063 58.063v208.221zM184.43 302.115h655.201c16.985 0 30.778-13.793 30.778-30.778v-112.573l-716.758 0v112.573c0 16.985 13.793 30.778 30.778 30.778z"  horiz-adv-x="1025" />

    
    <glyph glyph-name="envelope21" unicode="&#58891;" d="M1019.468 682.101l-313.022-268.016-194.466-159.087-193.018 157.871-314.432 269.233c-1.896-5.899-3.203-12.049-3.203-18.545v-567.074c0-3.708 0.448-7.233 1.153-10.717 4.984-28.735 30.017-50.817 60.123-50.817h898.342c27.046 0 49.888 17.905 57.882 42.368l0.358-0.333c2.114 6.175 3.485 12.639 3.485 19.499l0 567.074c0.001 6.496-1.306 12.646-3.203 18.545zM424.464 399.269l87.516-71.213 132.164 107.533 334.558 286.369c-5.471 1.62-11.196 2.786-17.218 2.786l-899.007-0c-5.983 0-11.71-1.166-17.18-2.799l334.751-286.516 44.417-36.162z"  horiz-adv-x="1024" />

    
    <glyph glyph-name="anchor" unicode="&#58940;" d="M544 704q0 13-9.5 22.5t-22.5 9.5-22.5-9.5-9.5-22.5 9.5-22.5 22.5-9.5 22.5 9.5 9.5 22.5zm416-464l0-176q0-11-10-15-4-1-6-1-6.5 0-11.5 4.5l-46.5 46.5q-59.5-71.5-159.25-113.25t-214.75-41.75-214.75 41.75-159.25 113.25l-46.5-46.5q-4.5-4.5-11.5-4.5-2 0-6 1-10 4-10 15l0 176q0 7 4.5 11.5t11.5 4.5l176 0q11 0 15-10 4-9.5-3.5-17.5l-50-50q33.5-45.5 94.75-76.75t135.75-41.25l0 323.5-96 0q-13 0-22.5 9.5t-9.5 22.5l0 64q0 13 9.5 22.5t22.5 9.5l96 0 0 81.5q-29 17-46.5 46.25t-17.5 64.25q0 53 37.5 90.5t90.5 37.5 90.5-37.5 37.5-90.5q0-35-17.5-64.25t-46.5-46.25l0-81.5 96 0q13 0 22.5-9.5t9.5-22.5l0-64q0-13-9.5-22.5t-22.5-9.5l-96 0 0-323.5q74.5 10 135.75 41.25t94.75 76.75l-50 50q-7.5 8-3.5 17.5 4 10 15 10l176 0q7 0 11.5-4.5t4.5-11.5z"  horiz-adv-x="1024" />

    
    <glyph glyph-name="camera" unicode="&#58956;" d="M512 412q59.5 0 101.75-42.25t42.25-101.75-42.25-101.75-101.75-42.25-101.75 42.25-42.25 101.75 42.25 101.75 101.75 42.25zm352 208q53 0 90.5-37.5t37.5-90.5l0-448q0-53-37.5-90.5t-90.5-37.5l-704 0q-53 0-90.5 37.5t-37.5 90.5l0 448q0 53 37.5 90.5t90.5 37.5l112 0 25.5 68q9.5 24.5 34.75 42.25t51.75 17.75l256 0q26.5 0 51.75-17.75t34.75-42.25l25.5-68 112 0zm-352-576q92.5 0 158.25 65.75t65.75 158.25-65.75 158.25-158.25 65.75-158.25-65.75-65.75-158.25 65.75-158.25 158.25-65.75z"  horiz-adv-x="1024" />

    
    <glyph glyph-name="file-text" unicode="&#59192;" d="M862 594q7-7 14-18h-236v236q11-7 18-14zM624 512h272v-528q0-20-14-34t-34-14h-672q-20 0-34 14t-14 34v800q0 20 14 34t34 14h400v-272q0-20 14-34t34-14zM704 144v32q0 7-4.5 11.5t-11.5 4.5h-352q-7 0-11.5-4.5t-4.5-11.5v-32q0-7 4.5-11.5t11.5-4.5h352q7 0 11.5 4.5t4.5 11.5zM704 272v32q0 7-4.5 11.5t-11.5 4.5h-352q-7 0-11.5-4.5t-4.5-11.5v-32q0-7 4.5-11.5t11.5-4.5h352q7 0 11.5 4.5t4.5 11.5zM704 400v32q0 7-4.5 11.5t-11.5 4.5h-352q-7 0-11.5-4.5t-4.5-11.5v-32q0-7 4.5-11.5t11.5-4.5h352q7 0 11.5 4.5t4.5 11.5z"  horiz-adv-x="1024" />

    
    <glyph glyph-name="earth1" unicode="&#13462;" d="M480 832c-265.096 0-480-214.904-480-480 0-265.098 214.904-480 480-480 265.098 0 480 214.902 480 480 0 265.096-214.902 480-480 480zM751.59 192c8.58 40.454 13.996 83.392 15.758 128h127.446c-3.336-44.196-13.624-87.114-30.68-128h-112.524zM208.41 512c-8.58-40.454-13.996-83.392-15.758-128h-127.444c3.336 44.194 13.622 87.114 30.678 128h112.524zM686.036 512c9.614-40.962 15.398-83.854 17.28-128h-191.316v128h174.036zM512 576v187.338c14.59-4.246 29.044-11.37 43.228-21.37 26.582-18.74 52.012-47.608 73.54-83.486 14.882-24.802 27.752-52.416 38.496-82.484h-155.264zM331.232 658.484c21.528 35.878 46.956 64.748 73.54 83.486 14.182 10 28.638 17.124 43.228 21.37l-0-187.34h-155.264c10.746 30.066 23.616 57.68 38.496 82.484zM448 512v-128h-191.314c1.88 44.146 7.666 87.038 17.278 128h174.036zM95.888 192c-17.056 40.886-27.342 83.804-30.678 128h127.444c1.762-44.608 7.178-87.546 15.758-128h-112.524zM256.686 320h191.314v-128h-174.036c-9.612 40.96-15.398 83.854-17.278 128zM448 128v-187.34c-14.588 4.246-29.044 11.372-43.228 21.37-26.584 18.74-52.014 47.61-73.54 83.486-14.882 24.804-27.75 52.418-38.498 82.484h155.266zM628.768 45.516c-21.528-35.876-46.958-64.746-73.54-83.486-14.184-9.998-28.638-17.124-43.228-21.37l-0 187.34h155.266c-10.746-30.066-23.616-57.68-38.498-82.484zM512 192v128h191.314c-1.88-44.146-7.666-87.040-17.28-128h-174.034zM767.348 384c-1.762 44.608-7.178 87.546-15.758 128h112.524c17.056-40.886 27.344-83.806 30.68-128h-127.446zM830.658 576h-95.9c-18.638 58.762-44.376 110.294-75.316 151.428 42.536-20.34 81.058-47.616 114.714-81.272 21.48-21.478 40.362-44.938 56.502-70.156zM185.844 646.156c33.658 33.658 72.18 60.932 114.714 81.272-30.942-41.134-56.676-92.666-75.316-151.428h-95.898c16.138 25.218 35.022 48.678 56.5 70.156zM129.344 128h95.898c18.64-58.762 44.376-110.294 75.318-151.43-42.536 20.34-81.058 47.616-114.714 81.274-21.48 21.478-40.364 44.938-56.502 70.156zM774.156 57.844c-33.656-33.658-72.18-60.934-114.714-81.274 30.942 41.134 56.678 92.668 75.316 151.43h95.9c-16.14-25.218-35.022-48.678-56.502-70.156z"  horiz-adv-x="1024" />

    
    <glyph glyph-name="check-minus" unicode="&#59281;" d="M791.374 832.208h-558.748c-93.096 0-168.834-75.739-168.834-168.834v-558.747c0-93.096 75.739-168.834 168.834-168.834h558.747c93.096 0 168.834 75.739 168.834 168.834l0 558.747c0.001 93.095-75.738 168.834-168.833 168.834zM858.683 104.627c0-37.175-30.135-67.31-67.31-67.31l-558.747 0c-37.175 0-67.31 30.135-67.31 67.31l0 558.747c0 37.175 30.135 67.31 67.31 67.31h558.747c37.175 0 67.31-30.135 67.31-67.31l-0-558.747zM268.341 434.762h487.319v-101.525h-487.319v101.525z"  horiz-adv-x="1024" />

    
    <glyph glyph-name="bolt" unicode="&#58944;" d="M761.658614 572.573837q10.276204-11.446448 3.986143-25.160244l-308.542123-661.114674q-7.423735-14.298918-23.99-14.298918-2.303918 0-8.008857 1.133674-9.727653 2.85247-14.554909 10.861326t-2.559909 17.151387l112.562837 461.697797-232.000857-57.707653q-2.303918-0.585122-6.838613-0.585122-10.276204 0-17.699939 6.290061-10.276204 8.557409-7.423735 22.271205l114.866755 471.425449q2.303918 8.008857 9.142531 13.128674t16.017714 5.156387l187.421878 0q10.861326 0 18.285061-7.131174t7.423735-16.858826q0-4.571265-2.85247-10.276204l-97.715367-264.548266 226.295918 55.988858q4.571265 1.133674 6.838613 1.133674 10.861326 0 19.418735-8.557409z"  horiz-adv-x="1024" />

    
    <glyph glyph-name="bug" unicode="&#58951;" d="M969.142857 263.428571q0-14.848-10.861714-25.709714t-25.709714-10.861714l-128 0q0-97.718857-38.290286-165.705143l118.857143-119.442286q10.861714-10.861714 10.861714-25.709714t-10.861714-25.709714q-10.276571-10.861714-25.709714-10.861714t-25.709714 10.861714l-113.152 112.566857q-2.852571-2.852571-8.557714-7.424t-23.990857-16.274286-37.156571-20.845714-46.848-16.566857-55.442286-7.424l0 512-73.142857 0 0-512q-29.147429 0-58.002286 7.716571t-49.700571 18.870857-37.705143 22.272-24.868571 18.578286l-8.557714 8.009143-104.557714-118.272q-11.446857-11.995429-27.428571-11.995429-13.714286 0-24.576 9.142857-10.861714 10.276571-11.702857 25.417143t8.850286 26.587429l115.419429 129.718857q-33.133714 65.133714-33.133714 156.562286l-128 0q-14.848 0-25.709714 10.861714t-10.861714 25.709714 10.861714 25.709714 25.709714 10.861714l128 0 0 168.009143-98.852571 98.852571q-10.861714 10.861714-10.861714 25.709714t10.861714 25.709714 25.709714 10.861714 25.709714-10.861714l98.852571-98.852571 482.304 0 98.852571 98.852571q10.861714 10.861714 25.709714 10.861714t25.709714-10.861714 10.861714-25.709714-10.861714-25.709714l-98.852571-98.852571 0-168.009143 128 0q14.848 0 25.709714-10.861714t10.861714-25.709714zM694.857143 592.571429l-365.714286 0q0 75.995429 53.430857 129.426286t129.426286 53.430857 129.426286-53.430857 53.430857-129.426286z"  horiz-adv-x="1024" />

    
    <glyph glyph-name="crop" unicode="&#58973;" d="M354.852571 80.571429l340.004571 0 0 340.004571zM329.142857 106.281143l340.004571 340.004571-340.004571 0 0-340.004571zM987.428571 62.285714l0-109.714286q0-8.009143-5.156571-13.129143t-13.129143-5.156571l-128 0 0-128q0-8.009143-5.156571-13.129143t-13.129143-5.156571l-109.714286 0q-8.009143 0-13.129143 5.156571t-5.156571 13.129143l0 128-493.714286 0q-8.009143 0-13.129143 5.156571t-5.156571 13.129143l0 493.714286-128 0q-8.009143 0-13.129143 5.156571t-5.156571 13.129143l0 109.714286q0 8.009143 5.156571 13.129143t13.129143 5.156571l128 0 0 128q0 8.009143 5.156571 13.129143t13.129143 5.156571l109.714286 0q8.009143 0 13.129143-5.156571t5.156571-13.129143l0-128 486.290286 0 140.580571 141.129143q5.705143 5.156571 13.129143 5.156571t13.129143-5.156571q5.156571-5.705143 5.156571-13.129143t-5.156571-13.129143l-141.129143-140.580571 0-486.290286 128 0q8.009143 0 13.129143-5.156571t5.156571-13.129143z"  horiz-adv-x="1024" />

    
    <glyph glyph-name="file" unicode="&#59178;" d="M585.142857 519.428571l0 269.714286q12.580571-8.009143 20.553143-16.018286l233.142857-233.142857q8.009143-8.009143 16.018286-20.553143l-269.714286 0zM512 501.142857q0-22.857143 16.018286-38.838857t38.838857-16.018286l310.857143 0 0-603.428571q0-22.857143-16.018286-38.838857t-38.838857-16.018286l-768 0q-22.857143 0-38.838857 16.018286t-16.018286 38.838857l0 914.285714q0 22.857143 16.018286 38.838857t38.838857 16.018286l457.142857 0 0-310.857143z"  horiz-adv-x="1024" />

    
    <glyph glyph-name="film" unicode="&#59006;" d="M219.428609-102.285662l0 73.142853q0 14.847999-10.861714 25.709713t-25.709713 10.861714l-73.142853 0q-14.847999 0-25.709713-10.861714t-10.861714-25.709713l0-73.142853q0-14.847999 10.861714-25.709713t25.709713-10.861714l73.142853 0q14.847999 0 25.709713 10.861714t10.861714 25.709713zM219.428609 117.142897l0 73.142853q0 14.847999-10.861714 25.709713t-25.709713 10.861714l-73.142853 0q-14.847999 0-25.709713-10.861714t-10.861714-25.709713l0-73.142853q0-14.847999 10.861714-25.709713t25.709713-10.861714l73.142853 0q14.847999 0 25.709713 10.861714t10.861714 25.709713zM219.428609 336.571456l0 73.142853q0 14.847999-10.861714 25.709713t-25.709713 10.861714l-73.142853 0q-14.847999 0-25.709713-10.861714t-10.861714-25.709713l0-73.142853q0-14.847999 10.861714-25.709713t25.709713-10.861714l73.142853 0q14.847999 0 25.709713 10.861714t10.861714 25.709713zM804.571432-102.285662l0 292.571412q0 14.847999-10.861714 25.709713t-25.709713 10.861714l-438.857118 0q-14.847999 0-25.709713-10.861714t-10.861714-25.709713l0-292.571412q0-14.847999 10.861714-25.709713t25.709713-10.861714l438.857118 0q14.847999 0 25.709713 10.861714t10.861714 25.709713zM219.428609 556.000015l0 73.142853q0 14.847999-10.861714 25.709713t-25.709713 10.861714l-73.142853 0q-14.847999 0-25.709713-10.861714t-10.861714-25.709713l0-73.142853q0-14.847999 10.861714-25.709713t25.709713-10.861714l73.142853 0q14.847999 0 25.709713 10.861714t10.861714 25.709713zM1023.999991-102.285662l0 73.142853q0 14.847999-10.861714 25.709713t-25.709713 10.861714l-73.142853 0q-14.847999 0-25.709713-10.861714t-10.861714-25.709713l0-73.142853q0-14.847999 10.861714-25.709713t25.709713-10.861714l73.142853 0q14.847999 0 25.709713 10.861714t10.861714 25.709713zM804.571432 336.571456l0 292.571412q0 14.847999-10.861714 25.709713t-25.709713 10.861714l-438.857118 0q-14.847999 0-25.709713-10.861714t-10.861714-25.709713l0-292.571412q0-14.847999 10.861714-25.709713t25.709713-10.861714l438.857118 0q14.847999 0 25.709713 10.861714t10.861714 25.709713zM1023.999991 117.142897l0 73.142853q0 14.847999-10.861714 25.709713t-25.709713 10.861714l-73.142853 0q-14.847999 0-25.709713-10.861714t-10.861714-25.709713l0-73.142853q0-14.847999 10.861714-25.709713t25.709713-10.861714l73.142853 0q14.847999 0 25.709713 10.861714t10.861714 25.709713zM1023.999991 336.571456l0 73.142853q0 14.847999-10.861714 25.709713t-25.709713 10.861714l-73.142853 0q-14.847999 0-25.709713-10.861714t-10.861714-25.709713l0-73.142853q0-14.847999 10.861714-25.709713t25.709713-10.861714l73.142853 0q14.847999 0 25.709713 10.861714t10.861714 25.709713zM1023.999991 556.000015l0 73.142853q0 14.847999-10.861714 25.709713t-25.709713 10.861714l-73.142853 0q-14.847999 0-25.709713-10.861714t-10.861714-25.709713l0-73.142853q0-14.847999 10.861714-25.709713t25.709713-10.861714l73.142853 0q14.847999 0 25.709713 10.861714t10.861714 25.709713zM1097.142844 647.428581l0-767.999956q0-37.705141-26.843427-64.585139t-64.585139-26.843427l-914.285662 0q-37.705141 0-64.585139 26.843427t-26.843427 64.585139l0 767.999956q0 37.705141 26.843427 64.585139t64.585139 26.843427l914.285662 0q37.705141 0 64.585139-26.843427t26.843427-64.585139z"  horiz-adv-x="1098" />

    
    <glyph glyph-name="html5" unicode="&#59264;" d="M755.419 554.862l9.143 99.986h-505.161l26.843-305.152h349.696l-12.581-130.304-112.567-30.281-112.018 30.281-7.424 80.018h-99.986l12.581-158.866 206.848-57.161h2.304v0.585l205.129 56.576 28.562 310.857h-368.018l-8.558 103.424h385.134zM109.714 822.857h804.571l-73.143-821.723-330.277-92.562-328.009 92.562z"  horiz-adv-x="1024" />

    
    <glyph glyph-name="file-text-alt" unicode="&#58895;" d="M886.984 603c-6.656 16-14.656 28.672-24 38.016l-155.968 155.968c-9.344 9.323-22.016 17.323-38.016 24s-30.667 10.016-44 10.016h-431.998c-35.35 0-64.002-28.654-64.002-64v-768c0-35.345 28.651-64 63.994-64h640.012c35.348 0 63.994 28.65 63.994 63.992v560.008c-0.021 13.333-3.36 28-10.016 44zM661.48 752.056l156.512-156.512c4.011-4.011 7.68-10.848 11.008-20.512h-188l-0.032 188.032c9.685-3.349 16.522-7.019 20.512-11.008zM833-0.968h-640v768h384v-208c0.021-13.312 4.693-24.64 14.016-33.984 9.323-9.344 20.651-14.016 33.984-14.016h208v-512zM673.003 191h-320.006c-17.674 0-31.997-14.327-31.997-32 0-17.677 14.325-32 31.997-32h320.006c17.674 0 31.997 14.327 31.997 32 0 17.677-14.325 32-31.997 32zM673.003 319h-320.006c-17.674 0-31.997-14.327-31.997-32 0-17.677 14.325-32 31.997-32h320.006c17.674 0 31.997 14.327 31.997 32 0 17.677-14.325 32-31.997 32zM321 415c0-17.677 14.325-32 31.997-32h320.006c17.674 0 31.997 14.327 31.997 32 0 17.677-14.325 32-31.997 32h-320.006c-17.674 0-31.997-14.327-31.997-32z"  horiz-adv-x="1024" />

    
    <glyph glyph-name="archive" unicode="&#58918;" d="M621.714286 420.571429q0 14.857143-10.857143 25.714286t-25.714286 10.857143l-146.285714 0q-14.857143 0-25.714286-10.857143t-10.857143-25.714286 10.857143-25.714286 25.714286-10.857143l146.285714 0q14.857143 0 25.714286 10.857143t10.857143 25.714286zm329.142857 109.714286l0-548.571429q0-14.857143-10.857143-25.714286t-25.714286-10.857143l-804.571429 0q-14.857143 0-25.714286 10.857143t-10.857143 25.714286l0 548.571429q0 14.857143 10.857143 25.714286t25.714286 10.857143l804.571429 0q14.857143 0 25.714286-10.857143t10.857143-25.714286zm36.571429 256l0-146.285714q0-14.857143-10.857143-25.714286t-25.714286-10.857143l-877.714286 0q-14.857143 0-25.714286 10.857143t-10.857143 25.714286l0 146.285714q0 14.857143 10.857143 25.714286t25.714286 10.857143l877.714286 0q14.857143 0 25.714286-10.857143t10.857143-25.714286z"  horiz-adv-x="1024" />

    
    <glyph glyph-name="eur" unicode="&#58885;" d="M777.142857 149.142857l20-90.857143q1.714286-6.857143-1.714286-12.857143t-9.714286-8.285714l-2.857143-0.571429q-2.285714-1.142857-6-2t-9.142857-2.571429-12.285714-3.142857-14.571429-2.857143-17.142857-2.857143-19.142857-2.571429-20.857143-1.714286-22-0.571429q-133.714286 0-233.714286 74.571429t-136 200.857143l-54.285714 0q-7.428571 0-12.857143 5.428571t-5.428571 12.857143l0 64.571429q0 7.428571 5.428571 12.857143t12.857143 5.428571l37.714286 0q-1.142857 32.571429 0.571429 60l-38.285714 0q-8 0-13.142857 5.142857t-5.142857 13.142857l0 65.142857q0 8 5.142857 13.142857t13.142857 5.142857l56 0q38.285714 120 139.142857 193.142857t228.857143 73.142857q58.285714 0 110.857143-13.142857 6.285714-1.714286 11.428571-8.571429 3.428571-6.285714 1.714286-13.714286l-24.571429-90.857143q-1.714286-7.428571-8-11.142857t-13.714286-1.428571l-2.285714 0.571429q-2.285714 0.571429-6.571429 1.428571l-10 2-12.857143 2-14.857143 1.714286-16.571429 1.428571-16.857143 0.571429q-72 0-129.142857-36.571429t-85.714286-100.571429l267.428571 0q9.142857 0 14.285714-6.857143 5.714286-6.857143 4-14.857143l-13.714286-65.142857q-2.857143-14.857143-18.285714-14.857143l-278.857143 0q-1.714286-21.142857 0-60l262.285714 0q8.571429 0 14.285714-6.857143 5.142857-6.857143 3.428571-15.428571l-13.714286-64q-1.142857-6.285714-6.285714-10.571429t-11.428571-4.285714l-221.142857 0q27.428571-66.857143 85.428571-106t130.571429-39.142857q10.285714 0 20.571429 0.857143t19.142857 2 16.857143 2.571429 14 2.857143 10.571429 2.571429l6.857143 1.714286 2.857143 1.142857q7.428571 2.857143 14.857143-1.142857 6.857143-4 8.571429-12z"  horiz-adv-x="1024" />

    
    <glyph glyph-name="gamepad" unicode="&#59038;" d="M475.429 274.286v73.143q0 8-5.143 13.143t-13.143 5.143h-109.714v109.714q0 8-5.143 13.143t-13.143 5.143h-73.143q-8 0-13.143-5.143t-5.143-13.143v-109.714h-109.714q-8 0-13.143-5.143t-5.143-13.143v-73.143q0-8 5.143-13.143t13.143-5.143h109.714v-109.714q0-8 5.143-13.143t13.143-5.143h73.143q8 0 13.143 5.143t5.143 13.143v109.714h109.714q8 0 13.143 5.143t5.143 13.143zM804.571 237.714q0 30.286-21.429 51.714t-51.714 21.429-51.714-21.429-21.429-51.714 21.429-51.714 51.714-21.429 51.714 21.429 21.429 51.714zM950.857 384q0 30.286-21.429 51.714t-51.714 21.429-51.714-21.429-21.429-51.714 21.429-51.714 51.714-21.429 51.714 21.429 21.429 51.714zM1097.143 310.857q0-121.143-85.714-206.857t-206.857-85.714q-109.714 0-193.143 73.143h-125.714q-83.429-73.143-193.143-73.143-121.143 0-206.857 85.714t-85.714 206.857 85.714 206.857 206.857 85.714h512q121.143 0 206.857-85.714t85.714-206.857z"  horiz-adv-x="1098" />

    
    <glyph glyph-name="barcode" unicode="&#58942;" d="M16 767.632l32.304 0 0-767.248L16 0.384 16 767.632zM112.896 767.632l63.28 0 0-767.248L112.896 0.384 112.896 767.632zM239.472 767.632l64.576 0 0-767.248-64.576 0L239.472 767.632zM367.36 767.632l129.168 0 0-767.248L367.36 0.384 367.36 767.632zM559.824 767.632l96.864 0 0-767.248-96.864 0L559.824 767.632zM720.032 767.632l64.512 0 0-767.248-64.512 0L720.032 767.632zM847.856 767.632l32.256 0 0-767.248-32.256 0L847.856 767.632zM944.704 767.632 1008 767.632l0-767.248-63.296 0L944.704 767.632z"  horiz-adv-x="1024" />

    
    <glyph glyph-name="google-plus-sign" unicode="&#59279;" d="M1008 792.704v-817.376c0-23.872-8.608-44.336-25.776-61.536-17.232-17.216-37.744-25.792-61.52-25.792h-817.408c-23.776 0-44.336 8.576-61.52 25.792-17.152 17.2-25.776 37.664-25.776 61.536v817.376c0 23.792 8.624 44.288 25.776 61.52 17.184 17.184 37.744 25.776 61.52 25.776h817.408c23.776 0 44.288-8.592 61.52-25.776 17.168-17.216 25.776-37.728 25.776-61.52zM559.664 717.328c0 7.248-7.312 10.896-21.872 10.896-2 0-19.136 0.176-51.568 0.496-32.448 0.336-56.416 0.336-71.968 0-15.504-0.336-35.52-1.664-59.968-3.984-24.544-2.304-44.016-5.776-58.528-10.384-38.368-12.56-68.928-33.056-91.776-61.552-22.816-28.4-34.224-62.112-34.224-101.168 0-46.288 14.544-83.648 43.648-112.032 29.040-28.416 66.784-42.32 113.072-41.664h5.984c0-15.92 0.656-27.456 1.952-34.784 1.328-7.264 3.008-11.072 5.008-11.408s4.464-1.952 7.408-4.96c2.96-2.944 5.744-7.744 8.464-14.368-36.384 0-70.304-3.92-101.712-11.856-31.408-7.968-59.616-23.776-84.8-47.664-25.088-23.776-37.664-53.872-37.664-90.272 0-50.88 20.336-88.784 61.024-113.6 40.688-24.752 88.112-37.168 142.304-37.168 60.88 0 113.632 15.040 158.24 45.152 44.656 30.096 67.008 74.192 67.008 132.416 0 25.104-6.448 49.248-19.36 72.4-12.848 23.152-27.28 41.344-43.12 54.576-15.904 13.184-30.256 25.936-43.136 38.16-12.912 12.288-19.376 21.696-19.376 28.336 0 7.248 4.96 15.68 14.928 25.28 9.904 9.584 20.928 19.168 33.2 28.768 12.288 9.584 23.344 24.96 33.264 46.192 9.904 21.088 14.88 45.648 14.88 73.424 0 50.208-14.544 85.6-43.648 106.096 0.704 0 5.744 0.512 15.408 1.504 9.6 0.992 16.336 1.968 20.336 2.976 3.904 1.008 9.6 2.624 16.864 4.96 7.264 2.32 12.368 5.632 15.376 9.92 2.8 4.224 4.352 9.312 4.352 15.312zM480.256 206.416c0-29.12-14.208-52.56-42.64-70.368-28.464-17.904-58.24-26.816-89.344-26.816-31.040 0-59.312 7.888-84.752 23.776-25.456 15.888-38.224 38.416-38.224 67.488 0 31.776 13.552 55.568 40.688 71.424 27.088 15.856 57.52 23.792 91.248 23.792 30.464 0 58.56-7.792 84.384-23.296 25.712-15.584 38.64-37.584 38.64-66zM425.664 548.688c0-23.184-5.12-43.040-15.392-59.504-10.24-16.576-26.272-24.88-48.064-24.88-28.464 0-51.056 15.040-67.968 45.152-16.832 30.096-25.28 60.336-25.28 90.8 0 23.136 5.12 42.928 15.408 59.488 10.224 16.512 26.272 24.8 48.128 24.8 28.416 0 51.056-15.024 67.92-45.12 16.88-30.128 25.248-60.368 25.248-90.736zM772.928 555.6h120v59.536h-120v121.024h-59.52v-121.024h-121.008v-59.536h121.008v-120.016h59.52v120.016z"  horiz-adv-x="1024" />

    
    <glyph glyph-name="tumblr-sign" unicode="&#58920;" d="M842.704 880 181.344 880C90.4 880 16 805.6 16 714.656l0-661.296C16-37.664 90.4-112 181.344-112l661.344 0C933.664-112 1008-37.664 1008 53.36L1008 714.656C1008 805.568 933.664 880 842.704 880zM724.864 81.072c-29.216-13.696-55.728-23.424-79.472-29.008-23.696-5.504-49.376-8.304-76.912-8.304-31.296 0-49.76 3.936-73.808 11.84-24.016 7.936-44.576 19.216-61.504 33.776-17.008 14.688-28.784 30.256-35.344 46.688-6.56 16.464-9.824 40.4-9.824 71.712L388 447.856l-93.008 0L294.992 544.8c26.88 8.704 58.064 21.232 77.184 37.536 19.232 16.336 34.608 35.904 46.208 58.768 11.632 22.816 19.616 51.968 24 87.264l97.36 0 0-158.336 158.272 0 0-122.176-158.272 0 0-175.52c0-39.712-0.544-62.624 3.68-73.856 4.176-11.2 14.656-22.832 26.032-29.552 15.168-9.072 32.448-13.632 51.952-13.632 34.688 0 69.2 11.264 103.456 33.776l0-107.952L724.864 81.072z"  horiz-adv-x="1024" />

    
    <glyph glyph-name="msnui-task" unicode="&#59292;" d="M325.91927253 296.63093547000005l104.37286614-104.37286614c8.15261227-8.15261227 18.83756587-12.22837227 29.52252053-12.22837226 10.68058773 0 21.3655424 4.07576 29.51378773 12.22837226l208.74682347 208.7413664c16.30522453 16.30522453 16.30522453 42.73654187 0 59.04067414-16.30522453 16.30522453-42.73108373 16.30522453-59.03630827 0L459.81465813 280.81689813l-74.85471146 74.85143787c-16.30522453 16.2997664-42.7354496 16.2997664-59.04067414 0C309.61950507 339.36638507 309.61950507 312.93179412999996 325.91927253 296.63093547000005zM888.10022933 793.86824213L705.51074987 793.86824213c6.67795947-9.59997653 10.60418133-21.25748053 10.60418133-33.8373248s-3.9262208-24.23734827-10.60418133-33.8373248l148.75215466 0 0-751.33378666L169.62357653-25.140194130000054 169.62357653 726.1935925299999 317.39663253 726.1935925299999c-6.67795947 9.59997653-10.60418133 21.25748053-10.60418133 33.8373248s3.9262208 24.23734827 10.60418133 33.8373248L135.78625173 793.86824213c-18.68802667 0-33.8373248-15.14929813-33.8373248-33.8373248l0-819.00843733c0-18.68802667 15.14929813-33.8373248 33.8373248-33.8373248l752.3139776 0c18.68802667 0 33.8373248 15.14929813 33.8373248 33.8373248L921.93755413 760.03091733C921.93755413 778.71894507 906.78825707 793.86824213 888.10022933 793.86824213zM440.322176 657.06393813l140.80693333 0c36.1699168 0 65.4915968 29.32167893 65.4915968 65.4915968l0 5.82111147c0 36.1699168-29.32167893 65.4915968-65.4915968 65.4915968l-2.76592853 0c2.2463616 5.62791147 3.49397653 11.7622912 3.49397653 18.1924736 0 27.12771093-21.99098667 49.1186976-49.1186976 49.1186976l-41.47801173 0c-27.12771093 0-49.1186976-21.99098667-49.1186976-49.1186976 0-6.43018347 1.24870613-12.5645632 3.49506773-18.1924736l-5.3146432 0c-36.1699168 0-65.4915968-29.32167893-65.4915968-65.4915968l0-5.82111147C374.8305792 686.38561707 404.1522592 657.06393813 440.322176 657.06393813z"  horiz-adv-x="1024" />

    
    <glyph glyph-name="stethoscope" unicode="&#59200;" d="M326.995 772.094c0-30.421-24.834-55.155-55.501-55.155-30.588 0-55.486 24.734-55.486 55.155 0 30.422 24.898 55.156 55.486 55.156 30.667 0 55.501-24.734 55.501-55.156zM326.995 312.442c-204.856 0-258.96 240.53-258.96 367.651 0 128.814 161.281 128.814 221.991 128.814v-73.626c-147.972 0-147.972-35.855-147.972-55.188 0-81.775 33.192-294.152 184.941-294.152l-0-73.499zM401.014 772.094c0-30.421 24.833-55.155 55.501-55.155 30.652 0 55.485 24.734 55.485 55.155 0 30.422-24.833 55.156-55.485 55.156-30.668 0-55.501-24.734-55.501-55.156zM401.014 312.442v73.499c151.75 0 185.005 212.377 185.005 294.152 0 19.333 0 55.188-148.037 55.188l0 73.626c60.709 0 221.991 0 221.991-128.814-0-127.121-54.119-367.651-258.959-367.651zM844.979-55.399c-61.224 0-110.986 49.498-110.986 110.342s49.763 110.343 110.986 110.343c61.225 0 110.987-49.499 110.987-110.343s-49.763-110.342-110.987-110.342zM844.979 91.756c-20.428 0-36.969-16.554-36.969-36.813 0-20.261 16.541-36.813 36.969-36.813 20.43 0 36.97 16.553 36.97 36.813-0.001 20.259-16.541 36.813-36.97 36.813zM733.992 358.362c-81.605 0-147.974-65.924-147.974-147.156v-101.107c0-50.683-41.501-91.97-92.534-91.97-50.985 0-92.471 41.287-92.471 91.97l-0 248.263h-74.019v-248.264c0-91.298 74.709-165.498 166.489-165.498 88.678 0 160.638 69.375 165.589 156.263h0.899l0 110.343c0 40.616 33.224 73.627 74.020 73.627 40.778 0 74.018-33.011 74.018-73.627v-73.53h73.938v73.53c0.001 81.232-66.367 147.156-147.955 147.156zM401.014 410.419h-74.019c-26.875 0-55.501-19.303-55.501-55.093 0-1.183 4.131-119.546 70.353-119.546h44.331c66.207 0 70.337 118.363 70.337 119.546-0 35.791-28.626 55.093-55.501 55.093z"  horiz-adv-x="1024" />

    
    <glyph glyph-name="stop" unicode="&#59198;" d="M950.557 786.898v-804.022c0-19.995-16.557-36.552-36.541-36.552h-804.032c-19.985 0-36.542 16.557-36.542 36.552l0 804.022c0 19.985 16.557 36.542 36.542 36.542h804.032c19.985 0 36.541-16.558 36.541-36.542z"  horiz-adv-x="1024" />

    
    <glyph glyph-name="mobile-phone" unicode="&#58887;" d="M768-128h-512c-32.8 0-64 32.736-64 64v896c0 31.264 32.736 64 64 64h512c32.8 0 64-31.2 64-64v-896c0-32.8-29.696-64-64-64zM512 0c17.664 0 32 14.336 32 32s-14.336 32-32 32c-17.664 0-32-14.336-32-32 0-17.664 14.336-32 32-32zM768 768h-512v-640h512v640z"  horiz-adv-x="1024" />

    
    <glyph glyph-name="question-sign" unicode="&#59092;" d="M512.095 878.893c-273.465 0-494.987-221.524-494.987-494.799 0-273.465 221.524-494.987 494.987-494.987 273.275 0 494.799 221.524 494.799 494.987 0 273.275-221.524 494.799-494.799 494.799zM572.801 73.868h-117.737v117.643h117.643v-117.643h0.095zM710.524 444.235c-14.706-23.19-46.095-54.863-94.077-94.737-24.885-20.644-40.251-37.329-46.378-49.867-5.939-12.444-8.673-35.067-8.199-67.305h-106.802c-0.285 15.27-0.471 24.605-0.471 27.997 0 34.502 5.844 63.063 17.251 85.404 11.501 22.341 34.406 47.51 68.625 75.506 34.406 27.713 54.863 46.095 61.648 54.863 10.37 13.669 15.459 28.657 15.459 45.153 0 22.907-9.050 42.703-27.431 59.105-18.192 16.118-42.891 24.32-73.811 24.32-29.977 0-54.863-8.484-75.13-25.452-20.078-16.967-33.935-42.986-41.475-78.052l-108.029 13.573c3.11 50.057 24.32 92.475 63.913 127.353 39.498 34.69 91.439 52.223 155.632 52.223 67.588 0 121.413-17.534 161.287-52.883 40.062-35.349 59.954-76.639 59.954-123.393 0-26.017-7.354-50.621-21.963-73.811z"  horiz-adv-x="1024" />

    
    <glyph glyph-name="file-alt" unicode="&#59180;" d="M232 864h400l280-280v-560q0-49.68-35.16-84.84t-84.84-35.16h-560q-49.68 0-84.84 35.16t-35.16 84.84v720q0 49.68 35.16 84.84t84.84 35.16zM552 504v280h-320q-16.88 0-28.44-11.56t-11.56-28.44v-720q0-16.88 11.56-28.44t28.44-11.56h560q16.88 0 28.44 11.56t11.56 28.44v480h-280zM798.88 584l-166.88 166.88v-166.88h166.88z"  horiz-adv-x="1024" />

    
    <glyph glyph-name="undo" unicode="&#59185;" d="M950.857143 300q0-89.142857-34.857143-170.285714t-93.714286-140-140-93.714286-170.285714-34.857143q-98.285714 0-186.857143 41.428571t-150.857143 116.857143q-4 5.714286-3.714286 12.857143t4.857143 11.714286l78.285714 78.857143q5.714286 5.142857 14.285714 5.142857 9.142857-1.142857 13.142857-6.857143 41.714286-54.285714 102.285714-84t128.571429-29.714286q59.428571 0 113.428571 23.142857t93.428571 62.571429 62.571429 93.428571 23.142857 113.428571-23.142857 113.428571-62.571429 93.428571-93.428571 62.571429-113.428571 23.142857q-56 0-107.428571-20.285714t-91.428571-58l78.285714-78.857143q17.714286-17.142857 8-39.428571-9.714286-22.857143-33.714286-22.857143l-256 0q-14.857143 0-25.714286 10.857143t-10.857143 25.714286l0 256q0 24 22.857143 33.714286 22.285714 9.714286 39.428571-8l74.285714-73.714286q61.142857 57.714286 139.714286 89.428571t162.571429 31.714286q89.142857 0 170.285714-34.857143t140-93.714286 93.714286-140 34.857143-170.285714z"  horiz-adv-x="1024" />

    
    <glyph glyph-name="user-md" unicode="&#59201;" d="M697.279 782.588c-76.15 90.033-211.871 76.587-267.715 25.924-8.571-7.761-73.945 1.11-103.090-27.036-29.131-28.116-66.081-78.765-66.081-164.311s43.686-139.338 43.686-139.338-0.87 6.095-1.878 15.359c-2.616 24.142-6.218 70.364 1.878 91.363 11.545 23.44 87.373 32.617 141.157 123.775 35.846-64.139 222.948-102.396 245.343-121.554 18.187-15.534 17.683-101.372 20.773-118.544 0.716-3.99 1.615-4.282 3.011 0.877 7.358 27.37 45.658 81.688 46.791 112.055 1.133 30.382 12.32 111.411-63.874 201.431zM699.068 562.438c-2.266 7.117-5.026 12.7-8.49 15.666-22.395 19.158-209.496 57.415-245.343 121.539-34.911-59.141-78.985-83.734-108.87-100.131-16.074-9.221-41.122-78.913-9.163-159.461 30.952-70.524 86.233-132.119 182.667-132.119 87.737 0 141.434 50.927 173.707 113.21 0 0 0.015 0.058 0.030 0.072 1.49 2.88 2.828 5.832 4.223 8.754 14.293 34.165 19.904 98.873 11.238 132.469zM644.239 322.385l-132.374-149.625c60.944 0.117 122.59 82.053 132.374 149.625zM511.865 172.76l-132.353 149.566c9.798-67.586 71.431-149.45 132.353-149.566zM676.789 313.792c-12.691-76.369-76.711-161.039-147.96-173.080-0.182-0.058-0.343-0.074-0.525-0.117-4.479-116.483-59.849-185.588-150.299-185.588-81.652 0-111.858 53.104-116.423 81.22-0.227 1.417 0.036 2.748 0.168 4.121-47.683 7.832-84.122 49.145-84.122 99.048 0 55.501 45.016 100.51 100.488 100.51 55.488 0 100.497-45.009 100.497-100.51 0-49.758-36.226-90.981-83.714-98.99 1.967-8.826 15.053-51.907 83.106-51.907 96.179 0 114.386 96.756 116.9 152.213-71.233 12.041-135.218 96.638-147.947 173.006-142.216-41.457-303.926-137.086-303.926-325.218 0-6.911 0-13.005 0-18.675 0-27.751 22.505-50.24 50.247-50.24h837.438c27.743 0 50.247 22.489 50.247 50.24 0 5.67 0 11.763 0 18.675-0 188.233-161.908 283.907-304.177 325.292zM278.38 174.060c-18.5 0-33.494-15.008-33.494-33.493 0-18.501 14.993-33.494 33.494-33.494 18.501 0 33.501 14.992 33.501 33.494 0 18.486-15 33.493-33.501 33.493zM278.38 206.59c-36.979 0-66.994-30.001-66.994-66.988 0-37.030 30.015-67.016 66.994-67.016 37.002 0 66.996 29.986 66.996 67.016-0.001 36.986-29.994 66.988-66.996 66.988zM278.38 90.325c-27.706 0-50.24 22.534-50.24 50.241 0 27.706 22.534 50.256 50.24 50.256 27.707 0 50.247-22.55 50.247-50.256-0-27.707-22.54-50.241-50.247-50.241z"  horiz-adv-x="1024" />

    
    <glyph glyph-name="circle-blank" unicode="&#58966;" d="M512 864c-262.4 0-480-217.6-480-480s217.6-480 480-480c262.4 0 480 217.6 480 480s-217.6 480-480 480zM512 0c-211.2 0-384 172.8-384 384s172.8 384 384 384c211.2 0 384-172.8 384-384 0-211.2-172.8-384-384-384z"  horiz-adv-x="1024" />

    
    <glyph glyph-name="renren" unicode="&#58937;" d="M512.878 577.836c-44.5 51.31-106.685 86.966-177.075 97.613v-209.672c0 0 5.65-87.608 56.681-163.274 48.064-71.401 94.185-98.629 118.451-108.723-44.265 51.213-71.124 117.893-71.124 190.871-0.003 74.086 27.597 141.599 73.068 193.185zM342.561 202.668c-43.799 53.809-54.915 105.948-54.915 105.948s-10.094-54.362-44.915-100.298c-21.855-28.987-66.309-63.532-87.89-79.644 40.934-21.86 87.706-34.173 137.249-34.173 48.901 0 95.014 12.037 135.585 33.336-25.193 19.633-68.902 54.828-85.115 74.831zM240.049 461.146l-0.1 212.728c-136.507-24.543-239.946-143.823-239.946-287.281 0-73.254 27.041-140.119 71.491-191.332 23.711 14.541 74.181 49.083 106.785 96.778 50.468 73.718 61.77 169.106 61.77 169.106zM775.613 673.5v-209.669c0 0 5.65-87.611 56.681-163.269 48.251-71.683 94.556-98.816 118.82-108.82 45.381 51.492 72.886 119.004 72.886 192.906-0.003 146.511-107.802 267.743-248.387 288.852zM782.372 200.817c-43.709 53.804-54.915 105.943-54.915 105.943s-10.094-54.362-44.915-100.39c-21.855-28.895-66.22-63.526-87.89-79.547 40.934-21.86 87.706-34.271 137.244-34.271 48.901 0 95.020 12.134 135.629 33.431-25.231 19.635-68.943 54.83-85.153 74.834zM679.857 459.203l-0.051 212.82c-66.076-11.95-124.329-46.029-166.93-94.188 44.454-51.305 71.309-118.17 71.309-191.242 0-73.994-27.599-141.509-72.886-193.001-0.095 0.090-0.179 0.184-0.179 0.184 0-0.184 0.084-0.279 0.179-0.463 23.711 14.63 74.181 49.175 106.785 96.873 50.473 73.715 61.773 169.016 61.773 169.016z"  horiz-adv-x="1024" />

    
    <glyph glyph-name="id-card" unicode="&#58931;" d="M921.6 735.573h-819.2c-58.027 0-102.4-44.373-102.4-98.987v-501.76c0-54.613 44.373-98.987 102.4-98.987h819.2c58.027 0 102.4 44.373 102.4 98.987v501.76c0 54.613-44.373 98.987-102.4 98.987zM191.147 537.6c0 68.267 51.2 102.4 95.573 102.4s95.573-34.133 95.573-102.4v-51.2c0-68.267-71.68-102.4-95.573-102.4s-95.573 34.133-95.573 102.4l-0 51.2zM481.28 192.853c0-47.787-17.067-64.853-64.853-64.853h-256c-47.787 0-64.853 17.067-64.853 64.853 0 0 0 30.72 0 30.72 0 34.133 17.067 85.333 71.68 122.88 23.893 17.067 54.613-10.24 88.747-40.96l10.24-10.24c0 0 10.24-10.24 23.893-10.24s23.893 10.24 23.893 10.24v0l10.24 10.24c34.133 30.72 58.027 54.613 88.747 40.96 61.44-34.133 71.68-88.747 71.68-122.88-3.413 0-3.413-30.72-3.413-30.72zM894.293 192.853h-286.72c-17.067 0-30.72 13.653-30.72 30.72s13.653 30.72 30.72 30.72h286.72c17.067 0 30.72-13.653 30.72-30.72 3.413-17.067-10.24-30.72-30.72-30.72zM894.293 353.28h-286.72c-17.067 0-30.72 13.653-30.72 30.72 0 17.067 13.653 30.72 30.72 30.72h286.72c17.067 0 30.72-13.653 30.72-30.72 3.413-17.067-10.24-30.72-30.72-30.72zM894.293 513.707h-286.72c-17.067 0-30.72 13.653-30.72 30.72s13.653 30.72 30.72 30.72h286.72c17.067 0 30.72-13.653 30.72-30.72 3.413-17.067-10.24-30.72-30.72-30.72z"  horiz-adv-x="1024" />

    
    <glyph glyph-name="linux" unicode="&#58928;" d="M861.184 111.2064c-22.7328 9.4208-41.5744 24.1664-40.3456 52.4288 1.2288 28.2624-20.2752 46.8992-20.2752 46.8992s18.8416 61.8496 1.2288 112.8448c-17.408 51.2-75.1616 132.9152-119.6032 194.7648-44.2368 61.8496-6.5536 132.9152-46.8992 224.256C595.1488 833.7408 490.496 828.416 434.176 789.504c-56.5248-38.912-39.1168-135.5776-36.4544-181.4528 2.6624-45.6704 1.2288-78.2336-3.8912-89.9072-5.3248-11.8784-41.5744-55.0912-65.7408-91.3408-24.1664-36.2496-41.5744-111.4112-59.1872-142.336-17.408-30.9248-5.3248-58.9824-5.3248-58.9824s-12.0832-3.8912-21.504-24.3712c-9.4208-20.0704-28.0576-29.4912-61.8496-36.0448-33.5872-6.7584-33.5872-28.2624-25.6-52.4288 8.192-24.1664 0-37.6832-9.4208-68.4032-9.4208-30.9248 37.4784-40.3456 83.3536-45.6704 45.6704-5.5296 96.6656-35.0208 139.6736-40.3456 43.008-5.3248 56.32 29.4912 56.32 29.4912s48.3328 10.8544 99.328 12.0832c50.9952 1.4336 99.328-10.6496 99.328-10.6496s9.4208-21.504 26.8288-30.9248c17.6128-9.4208 55.0912-10.8544 79.2576 14.7456 24.1664 25.6 88.6784 57.7536 124.928 77.824C890.88 71.0656 884.1216 101.7856 861.184 111.2064L861.184 111.2064zM528.5888 622.3872c-7.168 2.8672-13.7216 5.5296-18.8416 7.3728-2.6624 6.7584-4.3008 14.5408-4.3008 22.9376 0 28.0576 18.6368 50.9952 41.5744 50.9952l0 0c23.1424 0 41.5744-22.7328 41.5744-50.9952 0-20.0704-9.4208-37.2736-22.9376-45.6704-3.4816 1.6384-7.168 3.072-11.0592 4.7104M543.9488 595.968c11.4688-3.8912 24.3712-11.4688 22.9376-18.8416-1.4336-7.3728-7.3728-7.3728-22.9376-16.9984-15.5648-9.4208-49.3568-30.3104-60.2112-31.744-10.8544-1.4336-16.9984 4.7104-28.4672 12.0832-11.4688 7.3728-33.1776 25.1904-27.648 34.6112 0 0 16.7936 12.9024 24.1664 19.6608 7.3728 6.7584 26.4192 22.9376 37.888 20.8896C501.3504 613.7856 532.48 600.064 543.9488 595.968L543.9488 595.968zM442.1632 612.352c0.6144 0 1.024 0.2048 1.6384 0.4096-4.7104-4.5056-9.0112-8.3968-13.312-11.6736-13.312 6.144-23.1424 24.576-23.1424 46.2848 0 26.624 14.7456 48.128 32.768 48.128l0 0c18.2272 0 32.9728-21.504 32.9728-48.3328 0-4.9152-0.6144-9.4208-1.4336-13.7216-4.3008-1.6384-8.8064-3.8912-13.312-7.5776-2.2528-1.8432-4.096-3.4816-6.144-5.12M404.6848 16.7936c-4.3008-19.2512-26.8288-33.1776-26.8288-33.1776-20.48-6.3488-77.2096 18.2272-103.0144 29.0816-25.8048 10.6496-91.136 13.9264-99.7376 23.552-8.6016 9.8304 4.3008 31.1296 7.5776 51.4048 3.2768 20.48-6.3488 33.1776-3.2768 47.3088 3.2768 13.9264 45.056 13.9264 61.2352 23.552 16.1792 9.6256 19.2512 37.4784 32.1536 45.056 12.9024 7.5776 36.4544-19.2512 46.08-34.4064 9.6256-14.9504 46.08-79.4624 61.2352-95.4368C395.0592 57.5488 408.9856 36.0448 404.6848 16.7936L404.6848 16.7936zM642.2528 203.9808c-3.8912-18.8416-3.8912-87.2448-3.8912-87.2448s-41.5744-57.7536-106.0864-67.1744c-64.512-9.4208-96.6656-2.6624-96.6656-2.6624l-36.2496 41.5744c0 0 28.0576 4.096 24.1664 32.3584-4.096 28.0576-86.016 67.1744-100.7616 101.9904-14.7456 34.816-2.6624 94.0032 16.1792 123.4944 18.8416 29.4912 30.9248 94.0032 49.5616 115.5072 18.8416 21.504 33.5872 67.1744 26.8288 87.2448 0 0 40.3456-48.3328 68.4032-40.3456 28.0576 8.192 91.3408 55.0912 100.7616 46.8992 9.4208-8.192 89.9072-185.344 97.8944-241.664 8.192-56.32-5.3248-99.328-5.3248-99.328S646.144 222.8224 642.2528 203.9808L642.2528 203.9808zM848.4864 77.4144c-12.4928-11.4688-82.3296-39.7312-103.2192-61.6448-20.8896-21.9136-47.9232-39.5264-64.7168-34.4064-16.7936 5.3248-31.3344 28.0576-23.9616 61.6448 7.168 33.3824 13.5168 69.8368 12.4928 90.7264-1.024 20.8896-5.3248 49.152 0 53.248 5.12 4.096 13.5168 2.048 13.5168 2.048s-4.096-39.5264 19.8656-50.176c23.9616-10.4448 58.368 4.096 68.8128 14.7456 10.4448 10.4448 17.8176 26.0096 17.8176 26.0096s10.4448-5.3248 9.4208-21.9136c-1.024-16.5888 7.168-40.7552 22.9376-49.152C836.8128 100.352 860.9792 88.8832 848.4864 77.4144L848.4864 77.4144zM848.4864 77.4144"  horiz-adv-x="1024" />

    
    <glyph glyph-name="list-ul" unicode="&#59176;" d="M213.333 810.667c-46.933 0-85.333-38.4-85.333-85.333s38.4-85.333 85.333-85.333 85.333 38.4 85.333 85.333-38.4 85.333-85.333 85.333zM213.333 469.333c-46.933 0-85.333-38.4-85.333-85.333s38.4-85.333 85.333-85.333 85.333 38.4 85.333 85.333-38.4 85.333-85.333 85.333zM213.333 128c-46.933 0-85.333-38.4-85.333-85.333s38.4-85.333 85.333-85.333 85.333 38.4 85.333 85.333-38.4 85.333-85.333 85.333zM426.667 810.667v-170.667h725.333v170.667h-725.333zM426.667 469.333v-170.667h725.333v170.667l-725.333 0zM426.667 128v-170.667h725.333v170.667h-725.333z"  horiz-adv-x="1280" />

    
    <glyph glyph-name="excel" unicode="&#58880;" d="M269.75784 233.323279 303.169811 316.672592 334.493214 233.323279 421.76179 233.323279 350.362646 392.844435 422.532339 540.650783 330.09095 540.650783 307.693848 473.183182 281.962813 540.650783 197.829647 540.650783 262.537392 388.573155 185.833429 233.323279ZM573.833277 703.928496 573.833277 803.941328 64.165392 727.723436l0-689.178305 509.667885-74.741261 0 100.949156 385.761877 0 0 63.681368 0 0.101307 0 127.933741 0 63.782675L959.595154 448.408939l0 63.782675L959.595154 640.487605l0 5.031597 0 58.410318L573.833277 703.92952zM703.600783 640.487605l0-128.295991L573.833277 512.191614 573.833277 640.487605 703.600783 640.487605zM703.600783 448.408939l0-128.155798L573.833277 320.25314 573.833277 448.408939 703.600783 448.408939zM512.434905 34.862251l-386.871141 56.734142L125.563764 674.824645l386.871141 57.853639L512.434905 34.862251zM573.833277 256.470465l129.767506 0 0-127.933741L573.833277 128.536724 573.833277 256.470465zM895.982348 128.535701 767.213589 128.535701l0 127.933741 128.768759 0L895.982348 128.535701zM895.982348 320.25314 767.213589 320.25314 767.213589 448.408939l128.768759 0L895.982348 320.25314zM895.982348 512.191614 767.213589 512.191614 767.213589 640.487605l128.768759 0L895.982348 512.191614z"  horiz-adv-x="1024" />

    
    <glyph glyph-name="pinterest" unicode="&#59278;" d="M512.008 831.83c-247.367 0-447.856-200.479-447.856-447.831 0-148.837 72.548-280.639 184.218-362.079 23.137 101.809 62.997 181.828 100.244 237.057 23.283 34.786 47.18 63.445 68.893 86.207-5.445 12.317-8.43 26.054-8.43 40.452 0 55.688 45.31 100.687 101.061 100.687 55.981 0 100.837-44.999 100.837-100.687 0-56.048-44.856-101.062-100.837-101.062-21.566 0-41.353 6.719-57.851 18.138-19.104-20.375-39.782-50-59.939-80.305-46.579-69.71-78.448-147.572-95.317-231.38 63.82-35.010 137.040-54.862 214.971-54.862 247.361 0 447.846 200.476 447.846 447.832-0.001 247.352-200.486 447.831-447.841 447.831M505.581 75.15c-22.99 0-46.273 2.532-68.441 7.536-14.707 3.422-23.442 17.995-20.457 32.393 3.587 14.709 17.844 23.884 32.393 20.369 18.368-4.176 37.476-6.184 56.505-6.184 138.468 0 250.877 112.399 250.877 250.478 0 138.157-112.408 250.637-250.877 250.637-138.157 0-250.792-112.48-250.792-250.637 0-40.079 9.256-78.598 27.537-114.195 7.018-13.282 1.792-29.638-11.867-36.345-13.351-7.094-29.404-1.795-36.342 11.556-22.102 42.627-33.52 90.988-33.52 138.983 0 168.239 136.823 304.977 304.984 304.977 168.318 0 305.138-136.738 305.138-304.977-0.001-167.858-136.82-304.59-305.138-304.59z"  horiz-adv-x="1024" />

    
    <glyph glyph-name="foursquare" unicode="&#58929;" d="M370.86208 478.74048c-5.0688 5.09952-12.032 7.99744-19.23072 7.9872-7.14752-0.01024-14.17216-2.87744-19.26144-7.94624l-64.73728-64.6656c-10.65984-10.62912-10.69056-27.8528-0.03072-38.49216L486.71744 156.0576c4.39296-4.42368 10.09664-7.13728 16.16896-7.80288 1.01376-0.16384 2.05824-0.2048 3.11296-0.2048 0.07168 0 0.13312 0 0.19456 0.02048l0.03072-0.02048c7.3216-0.02048 14.26432 2.87744 19.44576 7.99744L918.7328 549.31456c10.6496 10.61888 10.6496 27.81184 0.02048 38.47168l-64.63488 64.73728c-5.19168 5.14048-11.96032 8.01792-19.26144 7.96672-7.28064 0.0512-14.10048-2.82624-19.28192-7.94624L506.24512 343.10144 370.86208 478.74048zM894.44352 454.27712 561.5104 121.18016c-14.37696-14.22336-33.40288-22.05696-53.6576-22.05696l-14.77632 0.02048-3.11296 2.08896c-13.55776 3.2256-26.10176 10.20928-36.02432 20.1728L234.89536 340.91008c-14.35648 14.32576-22.272 33.37216-22.26176 53.63712 0 20.28544 7.92576 39.3728 22.272 53.67808l64.8192 64.73728c14.08 14.00832 33.55648 22.04672 53.61664 22.08768 19.98848 0 39.54688-8.16128 53.59616-22.272l100.99712-101.1712 214.55872 214.6304L579.57376 769.15712c-37.82656 37.81632-99.71712 37.81632-137.54368 0L125.65504 452.78208c-37.8368-37.81632-37.8368-99.7376 0-137.55392l316.38528-316.38528c37.82656-37.81632 99.70688-37.81632 137.54368 0l316.38528 316.38528c37.82656 37.80608 37.82656 99.70688 0 137.55392L894.44352 454.27712z"  horiz-adv-x="1024" />

    
    <glyph glyph-name="xing" unicode="&#58934;" d="M458.5 498.5q-5-9-128.5-228-13.5-23-32.5-23l-119.5 0q-10.5 0-15.5 8.5t0 18l126.5 224q0.5 0 0 0.5l-80.5 139.5q-6 11-0.5 18.5 4.5 7.5 16 7.5l119.5 0q20 0 33-22.5zm403 321q5.5-8 0-18.5l-264-467 0-0.5 168-307.5q5.5-10 0.5-18.5-5-7.5-16-7.5l-119.5 0q-21 0-33 22.5l-169.5 311q9 16 265.5 471 12.5 22.5 32 22.5l120.5 0q11 0 15.5-7.5z"  horiz-adv-x="1024" />

    
    <glyph glyph-name="stackexchange" unicode="&#58916;" d="M762.578824-78.546824c0-18.793412-0.542118-18.793412-0.542118-18.793412l0-0.542118-608.737882 0c-18.853647 0-18.853647 0.542118-18.853647 0.542118l-0.542118 0 0 395.866353 65.114353 0 0-332.438588 499.109647 0 0 332.438588 64.451765 0 0-377.072941zM633.012706 31.262118l-380.205176-0.542118 0 81.197176 380.205176 0.542118 0-81.197176zM642.168471 216.184471l-6.987294-80.655059-379.181176 34.936471 7.529412 80.655059 378.639059-34.936471zM667.467294 322.680471l-21.022118-78.607059-367.314824 98.484706 20.961882 78.546824 367.375059-98.424471zM715.294118 415.201882l-41.441882-69.872941-327.499294 193.536 41.381647 69.933176 327.559529-193.596235zM795.407059 472.184471l-66.620235-45.718588-214.678588 314.066824 67.222588 46.320941 214.076235-314.669176zM890.096941 490.977882l-80.173176-13.974588-65.054118 374.904471 80.112941 13.974588 65.114353-374.904471z"  horiz-adv-x="1024" />

    
    <glyph glyph-name="bullseye" unicode="&#59265;" d="M658.359 384q0-60.562-42.862-103.424t-103.424-42.862-103.424 42.862-42.862 103.424 42.862 103.424 103.424 42.862 103.424-42.862 42.862-103.424zM731.502 384q0 90.843-64.293 155.136t-155.136 64.293-155.136-64.293-64.293-155.136 64.293-155.136 155.136-64.293 155.136 64.293 64.293 155.136zM804.645 384q0-121.125-85.723-206.848t-206.848-85.723-206.848 85.723-85.723 206.848 85.723 206.848 206.848 85.723 206.848-85.723 85.723-206.848zM877.787 384q0 74.313-29.111 141.97t-77.97 116.59-116.59 77.97-141.97 29.111-141.97-29.111-116.59-77.97-77.97-116.59-29.111-141.97 29.111-141.97 77.97-116.59 116.59-77.97 141.97-29.111 141.97 29.111 116.59 77.97 77.97 116.59 29.111 141.97zM950.93 384q0-119.442-58.88-220.306t-159.744-159.744-220.306-58.88-220.306 58.88-159.744 159.744-58.88 220.306 58.88 220.306 159.744 159.744 220.306 58.88 220.306-58.88 159.744-159.744 58.88-220.306z"  horiz-adv-x="1024" />

    
    <glyph glyph-name="bookmark-empty" unicode="&#58950;" d="M804.571429 749.714286l-585.142857 0 0-709.705143 292.571429 280.576 50.834286-48.566857 241.737143-232.009143 0 709.705143zM811.446857 822.857143q13.165714 0 25.161143-5.12 18.870857-7.460571 29.988571-23.405714t11.117714-35.401143l0-736.548571q0-19.456-11.117714-35.401143t-29.988571-23.405714q-10.825143-4.534857-25.161143-4.534857-27.428571 0-47.396571 18.285714l-251.977143 242.322286-251.977143-242.322286q-20.553143-18.870857-47.396571-18.870857-13.165714 0-25.161143 5.12-18.870857 7.460571-29.988571 23.405714t-11.117714 35.401143l0 736.548571q0 19.456 11.117714 35.401143t29.988571 23.405714q11.995429 5.12 25.161143 5.12l598.820571 0z"  horiz-adv-x="1024" />

    
    <glyph glyph-name="code-fork" unicode="&#59263;" d="M384 54.857q0 22.821-16.018 38.839t-38.839 16.018-38.839-16.018-16.018-38.839 16.018-38.839 38.839-16.018 38.839 16.018 16.018 38.839zM384 713.143q0 22.821-16.018 38.839t-38.839 16.018-38.839-16.018-16.018-38.839 16.018-38.839 38.839-16.018 38.839 16.018 16.018 38.839zM749.714 640q0 22.821-16.018 38.839t-38.839 16.018-38.839-16.018-16.018-38.839 16.018-38.839 38.839-16.018 38.839 16.018 16.018 38.839zM804.571 640q0-29.696-14.848-55.15t-40.009-39.717q-1.17-163.986-129.17-236.544-38.839-21.723-116.005-46.299-73.143-22.821-96.841-40.594t-23.698-57.125v-14.848q25.161-14.263 40.009-39.717t14.848-55.15q0-45.714-32.037-77.678t-77.678-32.037-77.678 32.037-32.037 77.678q0 29.696 14.848 55.15t40.009 39.717v468.553q-25.161 14.263-40.009 39.717t-14.848 55.15q0 45.714 32.037 77.678t77.678 32.037 77.678-32.037 32.037-77.678q0-29.696-14.848-55.15t-40.009-39.717v-284.014q30.866 14.848 87.991 32.549 31.451 9.728 50.030 16.823t40.302 17.701 33.719 22.601 23.113 29.111 16.018 39.717 4.827 52.297q-25.161 14.263-40.009 39.717t-14.848 55.15q0 45.714 32.037 77.678t77.678 32.037 77.678-32.037 32.037-77.678z"  horiz-adv-x="1024" />

    
    <glyph glyph-name="filter" unicode="&#59039;" d="M911.433155 727.405714q9.728-23.405714-7.972571-40.009143l-281.746286-281.746286 0-424.009143q0-23.990857-22.308571-33.718857-7.460571-2.852571-14.262857-2.852571-15.433143 0-25.746286 10.825143l-146.285714 146.285714q-10.825143 10.825143-10.825143 25.746286l0 277.723429-281.746286 281.746286q-17.700571 16.603429-7.972571 40.009143 9.728 22.308571 33.718857 22.308571l731.428571 0q23.990857 0 33.718857-22.308571z"  horiz-adv-x="1024" />

    
    <glyph glyph-name="mail-reply-all" unicode="&#59091;" d="M365.714 277.723v-40.009q0-23.991-22.309-33.719-7.461-2.853-14.263-2.853-15.433 0-25.746 10.825l-292.571 292.571q-10.825 10.825-10.825 25.746t10.825 25.746l292.571 292.571q16.603 17.701 40.009 7.973 22.309-9.728 22.309-33.719v-39.424l-226.889-227.401q-10.825-10.825-10.825-25.746t10.825-25.746zM1024 256q0-33.134-9.728-76.288t-22.016-78.848-27.429-71.461-23.113-51.712l-11.41-22.821q-4.535-9.728-16.018-9.728-3.438 0-5.12 0.585-14.263 4.535-13.166 19.456 24.576 228.571-60.562 322.853-36.571 40.594-97.426 63.122t-152.869 29.989v-143.433q0-23.991-22.309-33.719-7.461-2.853-14.263-2.853-15.433 0-25.746 10.825l-292.571 292.571q-10.825 10.825-10.825 25.746t10.825 25.746l292.571 292.571q16.603 17.701 40.009 7.973 22.309-9.728 22.309-33.719v-149.723q234.862-16.018 342.309-126.318 96.549-98.889 96.549-290.889z"  horiz-adv-x="1024" />

    
    <glyph glyph-name="xing-sign" unicode="&#58935;" d="M464.603429 458.825143q0 0.585143-71.972571 126.829714-11.995429 19.456-29.696 19.456l-105.179429 0q-10.313143 0-14.848-6.290286-4.022857-6.875429 0.585143-16.603429l71.460571-123.465143 0-0.585143-111.981714-197.705143q-5.12-7.972571 0-16.018286 4.534857-7.460571 13.677714-7.460571l105.691429 0q17.700571 0 28.598857 20.553143zM821.174857 742.838857q-4.022857 6.875429-13.677714 6.875429l-106.861714 0q-17.115429 0-28.013714-19.968l-234.861714-416.548571q0.585143-1.170286 149.723429-274.870857 11.410286-19.968 29.696-19.968l105.179429 0q10.313143 0 14.262857 6.875429 4.534857 7.460571-0.585143 16.018286l-148.553143 272.018286 0 0.585143 233.691429 413.110857q4.534857 9.142857 0 16.018286zM950.857143 658.285714l0-548.571429q0-68.022857-48.274286-116.297143t-116.297143-48.274286l-548.571429 0q-68.022857 0-116.297143 48.274286t-48.274286 116.297143l0 548.571429q0 68.022857 48.274286 116.297143t116.297143 48.274286l548.571429 0q68.022857 0 116.297143-48.274286t48.274286-116.297143z"  horiz-adv-x="1024" />

    
    <glyph glyph-name="quangou" unicode="&#58969;" d="M512 864C248 864 32 648 32 384c0-264.00093469 216-480 480-480 264.00093469 0 480 215.99906531 480 480C992 648 776.00093469 864 512 864zM512-16.00031156C287.99937687-16.00031156 111.99968844 159.99937687 111.99968844 384S287.99937687 784.00031156 512 784.00031156 912.00031156 608.00062313 912.00031156 384 736.00062313-16.00031156 512-16.00031156zM720.00124625 576L432.00031156 279.99937687 303.99968844 415.99968844c-16.00031156 16.00124625-40.00031156 16.00124625-55.99968844 0-15.99937688-16.00031156-15.99937688-40.00031156 0-56.00062313l160.00031156-159.99937687c8.00062313-7.99968844 16.00031156-7.99968844 32.00062313-7.99968844 15.99937688 0 23.99906531 0 31.99968843 7.99968844l319.99968844 319.99968844c15.99937688 16.00031156 15.99937688 40.00031156 0 56.00062312C776.00093469 592.00031156 736.00062313 583.99968844 720.00124625 576z"  horiz-adv-x="1024" />

    
    <glyph glyph-name="new" unicode="&#58884;" d="M223.808 347.968 94.08 543.872 31.68 543.872l0-320.256 64.064 0L95.744 428.544l136.64-204.928 55.488 0L287.872 543.872 223.808 543.872 223.808 347.968zM444.8 361.856l93.888 0L538.688 425.92 444.8 425.92 444.8 479.808l167.104 0L611.904 543.872 380.736 543.872l0-320.256 235.904 0L616.64 287.68 444.8 287.68 444.8 361.856zM928.896 543.872l-27.264-174.592-44.864 174.592-67.264 0-44.224-173.504-28.224 174.016-64.128 0 50.752-320.768 66.112 0 55.488 191.04 49.6-191.04 66.752 0 50.752 320.256L928.896 543.872z"  horiz-adv-x="1024" />

    
    <glyph glyph-name="meh" unicode="&#59060;" d="M1137.481644 520.286247c-39.241644 67.233315-92.475616 120.467288-159.708932 159.708932-67.247342 39.241644-140.659726 58.858959-220.286247 58.858959-79.619507 0-153.052932-19.617315-220.286247-58.858959-67.240329-39.23463-120.474301-92.468603-159.715945-159.708932C338.235616 453.045918 318.618301 379.612493 318.618301 300c0-79.619507 19.624329-153.038904 58.858959-220.286247 39.241644-67.226301 92.475616-120.467288 159.715945-159.708932 67.240329-39.241644 140.66674-58.858959 220.286247-58.858959 79.619507 0 153.052932 19.617315 220.286247 58.858959 67.233315 39.23463 120.467288 92.475616 159.708932 159.708932 39.23463 67.240329 58.851945 140.673753 58.851945 220.286247C1196.326575 379.619507 1176.70926 453.052932 1137.481644 520.286247zM1094.052822 158.000658c-19.427945-45.140164-45.427726-83.996055-77.999342-116.567671-32.564603-32.571616-71.427507-58.571397-116.567671-77.992329-45.147178-19.434959-92.475616-29.148932-141.999342-29.148932-49.523726 0-96.852164 9.713973-141.999342 29.148932-45.140164 19.420932-84.003068 45.420712-116.574685 77.992329-32.564603 32.571616-58.564384 71.420493-77.999342 116.567671-19.427945 45.140164-29.141918 92.48263-29.141918 141.999342 0 49.523726 9.713973 96.852164 29.141918 141.999342 19.427945 45.140164 45.427726 83.996055 77.999342 116.574685 32.571616 32.564603 71.434521 58.564384 116.574685 77.999342 45.140164 19.420932 92.475616 29.134904 141.999342 29.134904 49.516712 0 96.859178-9.706959 141.999342-29.134904s83.996055-45.427726 116.567671-77.999342c32.571616-32.571616 58.571397-71.427507 77.999342-116.574685 19.427945-45.140164 29.148932-92.468603 29.148932-141.999342C1123.208767 250.476274 1113.480767 203.133808 1094.052822 158.000658zM940.340603 226.854137 574.625315 226.854137c-9.910356 0-18.481096-3.626082-25.719233-10.857205-7.238137-7.238137-10.857205-15.808877-10.857205-25.712219s3.619068-18.481096 10.857205-25.712219c7.245151-7.238137 15.81589-10.864219 25.719233-10.864219l365.70126 0c9.903342 0 18.48811 3.626082 25.712219 10.864219 7.245151 7.231123 10.871233 15.808877 10.871233 25.712219s-3.612055 18.474082-10.857205 25.712219C958.821699 223.235068 950.243945 226.854137 940.340603 226.854137zM611.19474 373.138849c20.185425 0 37.425096 7.153973 51.712 21.433863 14.286904 14.27989 21.433863 31.519562 21.433863 51.712s-7.146959 37.425096-21.433863 51.712-31.526575 21.433863-51.712 21.433863c-20.192438 0-37.43211-7.146959-51.719014-21.433863-14.27989-14.286904-21.426849-31.519562-21.426849-51.712 0-20.192438 7.139945-37.43211 21.426849-51.712C573.769644 380.285808 591.002301 373.138849 611.19474 373.138849zM903.764164 519.430575c-20.192438 0-37.439123-7.146959-51.726027-21.433863-14.272877-14.286904-21.426849-31.519562-21.426849-51.712 0-20.192438 7.153973-37.43211 21.426849-51.712 14.286904-14.286904 31.533589-21.433863 51.726027-21.433863 20.178411 0 37.425096 7.153973 51.712 21.433863 14.286904 14.27989 21.433863 31.519562 21.433863 51.712s-7.146959 37.425096-21.433863 51.712S923.942575 519.430575 903.764164 519.430575z"  horiz-adv-x="1515" />

    
    <glyph glyph-name="beaker" unicode="&#58943;" d="M909.087232 68.558848q31.997952-50.853888 12.284928-87.13728t-80.280576-36.283392l-658.243584 0q-60.567552 0-80.280576 36.283392t12.284928 87.13728l287.410176 453.113856 0 227.985408-36.569088 0q-14.856192 0-25.71264 10.856448t-10.856448 25.71264 10.856448 25.71264 25.71264 10.856448l292.552704 0q14.856192 0 25.71264-10.856448t10.856448-25.71264-10.856448-25.71264-25.71264-10.856448l-36.569088 0 0-227.985408zm-445.114368 414.2592l-155.418624-245.127168 406.831104 0-155.418624 245.127168-11.42784 17.713152 0 249.126912-73.138176 0 0-249.126912z"  horiz-adv-x="1024" />

    
    <glyph glyph-name="OK1" unicode="&#58900;" d="M464.546 153.696l350.835 350.835q10.856 10.856 10.856 25.713t-10.856 25.713l-58.282 58.282q-10.856 10.856-25.713 10.856t-25.713-10.856l-266.84-266.84-120.564 120.564q-10.856 10.856-25.713 10.856t-25.713-10.856l-58.282-58.282q-10.856-10.856-10.856-25.713t10.856-25.713l204.558-204.558q10.856-10.856 25.713-10.856t25.713 10.856zM950.801 658.235v-548.536q0-67.996-48.283-116.278t-116.278-48.283h-548.536q-67.996 0-116.278 48.283t-48.283 116.278v548.536q0 67.996 48.283 116.278t116.278 48.283h548.536q67.996 0 116.278-48.283t48.283-116.278z"  horiz-adv-x="1024" />

    
    <glyph glyph-name="suitcase" unicode="&#59158;" d="M365.69088 676.519936l292.552704 0 0 73.138176-292.552704 0 0-73.138176zm-201.129984 0l0-731.38176-36.569088 0q-52.568064 0-90.279936 37.711872t-37.711872 90.279936l0 475.398144q0 52.568064 37.711872 90.279936t90.279936 37.711872l36.569088 0zm639.95904 0l0-731.38176-585.105408 0 0 731.38176 73.138176 0 0 91.42272q0 22.85568 15.998976 38.854656t38.854656 15.998976l329.121792 0q22.85568 0 38.854656-15.998976t15.998976-38.854656l0-91.42272 73.138176 0zm219.414528-127.991808l0-475.398144q0-52.568064-37.711872-90.279936t-90.279936-37.711872l-36.569088 0 0 731.38176 36.569088 0q52.568064 0 90.279936-37.711872t37.711872-90.279936z"  horiz-adv-x="1024" />

    
    <glyph glyph-name="cl" unicode="&#58909;" d="M631.792 426.328l-73.233-17.622c-10.076 19.133-22.614 36.221-38.022 52.239l39.255 64.118c0.861 1.412 1.068 3.018 0.692 4.527-0.331 1.556-1.303 2.87-2.665 3.699l-93.838 57.351c-2.788 1.655-6.389 0.824-8.070-1.948l-39.52-64.216c-20.946 6.376-42.538 9.784-64.334 10.126l-17.745 73.71c-0.804 3.163-3.956 5.158-7.195 4.379l-107.63-25.898c-3.237-0.78-5.185-3.993-4.406-7.206l17.722-73.613c-18.855-10.322-36.635-23.418-51.947-38.021l-63.582 39.092c-1.388 0.877-2.947 1.119-4.481 0.78v0c-1.557-0.39-2.896-1.317-3.711-2.728l-57.193-93.67c-0.827-1.362-1.094-3.016-0.73-4.572 0.365-1.557 1.326-2.824 2.726-3.601l63.837-38.945c-6.39-21.225-9.75-42.355-10.090-64.168l-73.257-17.719c-3.188-0.731-5.185-3.944-4.418-7.108l25.936-107.644c0.78-3.261 4.017-5.207 7.194-4.429l73.369 17.622c10.526-19.086 23.61-37.048 38.166-52.288l-39.105-63.726c-0.829-1.316-1.109-2.97-0.719-4.525 0.364-1.463 1.349-2.875 2.678-3.699l93.801-57.304c1.352-0.781 3.36-1.021 4.467-0.731 1.558 0.439 2.933 1.413 3.714 2.726l38.546 63.826c20.24-5.991 41.941-9.494 63.411-10.078l17.516-72.835c0.804-3.213 3.981-5.158 7.228-4.382l107.617 25.903c3.238 0.778 5.209 3.939 4.431 7.155l-17.586 72.929c19.182 10.274 36.806 23.030 52.611 38.218l64.339-39.284c2.788-1.707 6.402-0.833 8.202 1.995l57.45 93.813c0.814 1.315 1.021 2.972 0.657 4.527-0.33 1.557-1.317 2.874-2.703 3.696l-64.131 39.095c6.061 20.155 9.506 41.917 10.115 63.583l73.318 17.625c3.153 0.825 5.122 3.941 4.382 7.206l-25.901 107.589c-0.814 3.264-4.015 5.212-7.167 4.432zM461.191 302.331c3.566-47.612-24.706-93.812-68.741-112.457-37.449-15.778-80.196-10.808-112.523 12.806-27.091 19.766-44.119 50.628-46.638 84.564-3.506 47.66 24.754 93.862 68.803 112.455 5.987 2.537 12.22 4.579 18.439 6.088 32.619 7.836 66.916 0.973 94.043-18.793 27.12-19.718 44.121-50.629 46.616-84.664zM343.4 393.955c-70.507-3.361-114.678-75.653-85.589-139.871 16.249-35.975 53.908-59.003 93.354-57.204 70.408 3.41 114.698 75.703 85.562 139.966-16.262 35.881-53.968 58.908-93.328 57.108zM411.388 295.809c0.425-24.096-13.582-46.981-35.248-57.641-42.903-21.081-92.183 9.106-93.023 56.863-0.367 24.101 13.607 47.077 35.246 57.644 42.94 21.028 92.245-9.107 93.025-56.867zM991.254 646.869l-35.562 65.434c-1.598 2.872-5.125 3.845-8.159 2.288l-43.157-23.416c-9.51 10.075-20.122 18.645-32.245 26.142l14.012 47.418c0.901 3.213-0.816 6.476-4.016 7.447l-71.506 21.082c-3.119 0.971-6.355-0.829-7.375-3.993l-14.057-47.37c-14.266 0.243-27.911-1.118-41.47-4.383v0l-23.526 43.138c-1.558 2.87-5.161 3.844-8.036 2.387l-65.392-35.59c-2.906-1.606-3.945-5.158-2.385-8.032l23.439-43.184c-10.077-9.687-18.855-20.494-26.142-32.276l-47.212 13.924c-1.472 0.488-3.104 0.34-4.542-0.438-1.351-0.779-2.42-2.047-2.833-3.506l-21.107-71.568c-0.94-3.117 0.864-6.328 4.064-7.254l47.198-14.021c-0.316-14.264 1.157-27.945 4.429-41.575l-43.353-23.563c-1.35-0.83-2.371-2.048-2.822-3.506-0.449-1.51-0.294-3.117 0.449-4.577l35.599-65.335c1.606-2.92 5.122-3.943 8.081-2.434l43.357 23.61c9.71-10.127 20.565-18.842 32.371-26.092l-13.937-47.275c-0.488-1.557-0.244-3.164 0.451-4.479 0.777-1.507 2.009-2.484 3.566-2.87l71.385-21.177c1.554-0.485 3.202-0.291 4.55 0.488 1.437 0.779 2.421 2.097 2.825 3.555l14.018 47.268c13.804-0.291 27.617 1.22 41.189 4.384l23.634-43.376c0.656-1.413 1.972-2.486 3.531-2.876 1.019-0.337 2.009-0.337 3.030-0.095 0.488 0.193 0.988 0.342 1.561 0.487l65.325 35.636c1.386 0.78 2.405 2.046 2.906 3.557 0.366 1.507 0.281 3.163-0.499 4.526l-23.633 43.475c10.077 9.737 18.845 20.593 26.091 32.422l47.543-14.021c3.166-0.971 6.524 0.829 7.421 3.945l21.131 71.421c0.462 1.556 0.29 3.213-0.488 4.572-0.728 1.413-2 2.437-3.531 2.921l-47.478 14.021c0.28 13.729-1.196 27.605-4.396 41.14l43.279 23.515c1.385 0.729 2.457 2.044 2.9 3.504 0.463 1.558 0.29 3.166-0.487 4.577zM833.892 519.464c-9.174-7.548-19.544-12.758-30.771-15.483-38.763-9.349-77.286 12.66-89.663 51.021-9.261 28.873 0.293 61.148 23.734 80.234 9.176 7.548 19.549 12.804 30.769 15.531 38.727 9.35 77.368-12.659 89.668-51.069 9.333-28.822-0.247-61.051-23.738-80.234zM785.261 640.007c-46.716-0.73-76.141-48.926-55.612-90.846 10.369-21.128 32.787-34.858 56.354-34.468 46.624 0.779 76.129 48.926 55.559 90.894-10.322 21.127-32.739 34.81-56.302 34.421zM824.437 578.86c0.779-15.386-8.412-30.382-22.505-36.809-25.279-11.437-53.809 5.99-55.197 33.838-0.657 15.433 8.445 30.332 22.577 36.758 25.291 11.438 53.811-5.989 55.123-33.787z"  horiz-adv-x="1024" />

    
    <glyph glyph-name="list-chart" unicode="&#59048;" d="M1024.562-0.211h-1024.562v768.422h64.035v-704.387h960.527l-0-64.035zM320.176 127.859h-128.070v256.141h128.070v-256.141zM512.281 127.859h-128.070v512.282h128.070v-512.282zM704.386 127.859h-128.070v384.211h128.070v-384.211zM896.492 127.859h-128.070v576.317h128.070v-576.317z"  horiz-adv-x="1025" />

    
    <glyph glyph-name="cog1" unicode="&#58893;" d="M282.373 247.862h-233.741c-14.092 0-25.601-11.486-25.601-25.601v-168.495c0-14.188 11.461-25.625 25.601-25.625h290.42c-36.29 56.945-57.404 124.604-57.404 197.161-0.024 7.625 0.265 15.105 0.724 22.561v0 0zM48.633 352.27h255.554c37.714 102.381 119.706 183.286 222.689 219.673l-478.243-0c-14.092-0.024-25.601-11.486-25.601-25.601v-168.495c0-14.14 11.461-25.577 25.601-25.577v0 0zM48.633 676.278h755.079c14.14 0 25.649 11.51 25.649 25.625v168.447c0 14.116-11.534 25.649-25.649 25.649h-755.079c-14.092 0-25.601-11.534-25.601-25.649v-168.471c0-14.14 11.461-25.601 25.601-25.601v0 0zM1000.969 154.023v80.447l-95.576 15.588c-5.743 22.633-14.646 43.915-26.397 63.436l55.787 79.53-56.8 56.8-78.469-56.366c-19.617 11.775-40.996 20.824-63.846 26.494l-16.673 95.238h-80.399l-15.467-94.973c-22.85-5.574-44.422-14.526-63.943-26.253l-78.276 55.811-56.849-56.8 54.991-78.71c-11.775-19.641-20.92-41.189-26.615-64.16l-94.539-15.66v-80.447l94.322-16.649c5.767-23.019 14.815-44.519 26.735-64.281l-55.787-78.010 56.8-56.825 78.83 55.184c19.69-11.847 41.165-20.799 63.991-26.47l15.732-94.949h80.447l16.866 95.263c22.682 5.719 44.205 14.791 63.726 26.663l79.265-55.715 56.873 56.825-56.68 78.662c11.775 19.569 20.606 40.851 26.301 63.605l95.649 16.722zM679.47 81.467c-61.892 0-112.105 50.213-112.105 112.105 0 61.94 50.189 112.129 112.105 112.129 61.892 0 112.153-50.189 112.153-112.129 0.024-61.892-50.261-112.105-112.153-112.105v0 0z"  horiz-adv-x="1024" />

    
    <glyph glyph-name="unchecked" unicode="&#59129;" d="M819.683 805.875h-632.813c-58.007 0-105.469-47.461-105.469-105.469v-632.813c0-58.007 47.461-105.469 105.469-105.469h632.813c58.007 0 105.469 47.461 105.469 105.469v632.813c0 58.007-47.461 105.469-105.469 105.469zM160.504 674.047c0 29.12 23.61 52.729 52.726 52.729h580.095c29.12 0 52.729-23.61 52.729-52.729v-580.095c0-29.12-23.61-52.729-52.729-52.729h-580.095c-29.12 0-52.726 23.61-52.726 52.729v580.095z"  horiz-adv-x="1024" />

    
    <glyph glyph-name="bell" unicode="&#58945;" d="M909.582716 59.6992 824.718716 208.0256 824.718716 507.0336C824.718716 621.5936 738.062716 745.6 611.701116 791.0144 605.557116 851.7376 564.725116 896 511.221116 896 457.793916 896 416.808316 851.7376 410.715516 791.0144 284.456316 745.6 197.800316 621.5936 197.800316 507.0336L197.800316 208.0256 108.814716 52.4544C102.875516 42.1632 103.029116 29.568 108.942716 19.3536 114.881916 9.1392 125.889916 2.944 137.768316 2.944L349.557116 2.944C365.096316-71.7312 431.656316-127.9744 511.221116-127.9744 590.862716-127.9744 657.397116-71.7312 672.885116 2.944L884.673916 2.944 886.184316 2.944C904.641916 2.944 919.566716 17.6896 919.566716 36.0192 919.566716 45.3376 915.803516 53.7344 909.582716 59.6992M511.221116 829.6192C523.227516 829.6192 532.929916 820.5568 539.150716 807.04 529.909116 807.9616 520.923516 810.112 511.221116 810.112 501.518716 810.112 492.533116 807.9616 483.265916 807.04 489.512316 820.5568 499.189116 829.6192 511.221116 829.6192M511.221116-61.6448C468.853116-61.6448 433.473916-34.6112 419.701116 2.944L602.741116 2.944C588.968316-34.6112 553.640316-61.6448 511.221116-61.6448M195.112316 69.1968 260.136316 182.9376C263.029116 187.8272 264.616316 193.5872 264.616316 199.3472L264.616316 507.0336C264.616316 618.8032 370.037116 743.7824 511.221116 743.7824 652.405116 743.7824 757.953916 618.8032 757.953916 507.0336L757.953916 199.3472C757.953916 193.5872 759.489916 187.8272 762.305916 182.9376L827.381116 69.1968 195.112316 69.1968 195.112316 69.1968Z"  horiz-adv-x="1024" />

    
    <glyph glyph-name="home1" unicode="&#59271;" d="M960 292.352l-448 383.36-448-383.36v156.352l448 383.296 448-383.296v-156.352zM848 306.368v-370.368h-224v246.848h-224v-246.848h-224v370.368l336 277.76 336-277.76z"  horiz-adv-x="1024" />

    
    <glyph glyph-name="question1" unicode="&#59663;" d="M469.333 128h85.333v85.333h-85.333v-85.333zM512 810.667c-235.52 0-426.667-191.147-426.667-426.667s191.147-426.667 426.667-426.667 426.667 191.147 426.667 426.667-191.147 426.667-426.667 426.667zM512 42.667c-188.16 0-341.333 153.173-341.333 341.333s153.173 341.333 341.333 341.333 341.333-153.173 341.333-341.333-153.173-341.333-341.333-341.333zM512 640c-94.293 0-170.667-76.373-170.667-170.667h85.333c0 46.933 38.4 85.333 85.333 85.333s85.333-38.4 85.333-85.333c0-85.333-128-74.667-128-213.333h85.333c0 96 128 106.667 128 213.333 0 94.293-76.373 170.667-170.667 170.667z"  horiz-adv-x="1024" />

    
    <glyph glyph-name="star-half-empty" unicode="&#59159;" d="M877.774 495.4l-162.314 24.836c-37.817 5.787-82.4 38.693-99.072 73.126l-71.56 147.79c-8.377 17.3-19.539 25.955-30.752 25.955-0.693 0-1.385-0.033-2.076-0.099v0c-10.409-0.993-20.719-9.446-28.739-25.392l-73.777-146.695c-17.189-34.178-62.263-66.411-100.163-71.626l-162.669-22.388c-37.9-5.216-46.66-31.5-19.466-58.41l116.716-115.498c27.193-26.91 43.919-79.737 37.169-117.395l-28.976-161.626c-6.751-37.657 15.54-54.11 49.536-36.564l145.912 75.313c17.706 9.139 41.221 13.394 64.456 12.832v0c21.377-0.517 42.516-5.107 58.678-13.759l144.761-77.503c9.389-5.026 17.914-7.406 25.191-7.406 18.863 0 29.353 15.975 24.891 43.219l-26.536 162.045c-6.183 37.755 11.336 90.324 38.933 116.821l118.444 113.727c27.595 26.497 19.233 52.911-18.585 58.697zM735.391 367.265c-20.397-19.584-37.393-47.664-47.858-79.065-10.465-31.401-13.711-64.063-9.142-91.968l17.674-107.917-96.407 51.615c-50.99 30.37-78.901 24.436-87.658 27.3v493.234c17.225-40.932 57.134-123.308 109.533-163.806 26.189-20.241 56.69-32.837 84.642-37.113l108.097-16.54-78.88-75.74z"  horiz-adv-x="1024" />

    
    <glyph glyph-name="jieshu" unicode="&#58953;" d="M182.444 373.277v0 0 0zM859.103 735.691v0c-89.457 89.457-211.025 142.213-344.064 142.213s-256.901-55.050-344.064-142.213v0c-87.162-87.162-142.213-208.733-142.213-344.064 0-133.038 55.050-256.901 142.213-344.064 87.162-89.457 211.025-142.213 344.064-142.213 135.331 0 256.901 55.050 344.064 142.213 89.457 87.162 142.213 208.733 142.213 344.064 2.295 135.331-52.757 256.901-142.213 344.064zM806.346 100.32c-73.4-73.4-176.62-121.569-291.308-121.569s-217.907 45.876-291.308 121.569c-73.4 73.4-121.569 176.62-121.569 291.308s45.876 217.907 121.569 291.308c75.695 73.4 178.914 121.569 291.308 121.569 112.394 0 215.614-45.876 289.013-119.276l2.295-2.295c73.4-73.4 121.569-176.62 121.569-291.308s-45.876-217.907-121.569-291.308zM755.883 630.178v0h-479.396v-479.396h479.396v479.396z"  horiz-adv-x="1024" />

    
    <glyph glyph-name="kaishi" unicode="&#58958;" d="M178.033 367.987v0 0 0zM852.83 729.405v0c-89.21 89.21-210.445 141.823-343.116 141.823s-256.193-54.9-343.116-141.823v0c-86.923-86.923-141.823-208.158-141.823-343.116 0-132.671 54.9-256.193 141.823-343.116 86.923-89.21 210.445-141.823 343.116-141.823 134.96 0 256.193 54.9 343.116 141.823 89.21 86.923 141.823 208.158 141.823 343.116 2.287 134.96-52.611 256.193-141.823 343.116zM800.217 95.783c-73.197-73.197-176.134-121.235-290.506-121.235s-217.308 45.748-290.506 121.235c-73.197 73.197-121.235 176.134-121.235 290.506s45.748 217.308 121.235 290.506c75.487 73.197 178.42 121.235 290.506 121.235 112.085 0 215.020-45.748 288.217-118.947l2.287-2.287c73.197-73.197 121.235-176.134 121.235-290.506s-45.748-217.308-121.235-290.506zM370.177 676.793l452.914-260.768c16.013-9.151 20.588-29.736 11.437-45.748-4.575-4.575-9.151-9.151-13.723-13.723l-452.914-260.768c-16.013-9.151-36.599-4.575-45.748 11.437-2.287 6.862-4.575 11.437-4.575 18.3v523.825c0 18.3 13.723 32.025 32.025 32.025 9.151 0 16.013-2.287 20.588-4.575v0z"  horiz-adv-x="1024" />

    
    <glyph glyph-name="and" unicode="&#58910;" d="M512.001 876.874c-270.679 0-490.1-219.427-490.1-490.099 0-270.677 219.427-490.106 490.1-490.106 270.678 0 490.1 219.428 490.1 490.106 0 270.677-219.426 490.099-490.1 490.099zM933.34 386.77c0-232.7-188.64-421.339-421.339-421.339s-421.339 188.639-421.339 421.339 188.639 421.339 421.339 421.339 421.339-188.639 421.339-421.339zM299.923 110.065v538.379h73.814l285.614-422.695v422.695h68.991v-538.378h-73.814l-285.614 423.062v-423.063h-68.991z"  horiz-adv-x="1024" />

    
    <glyph glyph-name="check-sign" unicode="&#58972;" d="M464.601 153.869l350.626 350.626c14.276 14.275 14.276 37.115 0 51.39l-58.247 58.247c-14.274 14.275-37.115 14.275-51.391 0l-266.683-266.674-120.484 120.484c-14.275 14.285-37.115 14.285-51.401 0l-58.247-58.247c-14.275-14.275-14.275-37.116 0-51.39l204.436-204.435c14.275-14.277 37.114-14.277 51.39-0.001v0zM950.558 658.103v-548.195c0-45.118-15.983-83.951-48.535-115.929-31.978-32.542-70.812-48.535-115.919-48.535l-548.207 0c-45.107 0-83.942 15.993-116.483 48.535-31.978 31.978-47.973 70.812-47.973 115.929v548.195c0 45.107 15.994 83.942 47.973 115.92 32.541 32.551 71.376 48.535 116.483 48.535h548.207c45.107 0 83.941-15.984 115.919-48.535 32.552-31.978 48.535-70.813 48.535-115.92z"  horiz-adv-x="1024" />

    
    <glyph glyph-name="pencil" unicode="&#58883;" d="M177.135 238.386l0.029 0.032c-9.269-9.268-16.379-17.71-21.336-25.305-4.95-7.597-9.417-16.035-13.394-25.303-3.304-5.948-7.602-16.861-12.891-32.734-5.292-15.878-10.751-33.243-16.385-52.099-5.628-18.862-10.92-37.051-15.87-54.579-4.956-17.528-8.099-30.923-9.434-40.194-2.643-17.191-18.633-47.064-12.687-54.345 5.945-7.281 35.496 7.717 53.358 9.707 8.619 1.313 21.675 4.284 39.182 8.92 17.504 4.635 36.024 10.095 55.558 16.383 19.538 6.289 38.229 12.731 56.070 19.335 17.844 6.603 31.397 12.221 40.67 16.859 9.272 3.959 18.207 9.248 26.793 15.876 8.48 6.536 16 12.741 22.56 18.621l-185.561 185.559c-2.954-3.001-5.178-5.249-6.663-6.733zM956.483 701.732c-1.652 7.936-3.8 14.878-6.444 20.828h-0.063c-9.253 19.852-22.31 38.872-39.179 57.054-16.872 18.182-32.252 30.912-46.134 38.195-6.623 3.279-14.395 6.254-23.302 8.919-8.917 2.668-18.173 4.161-27.785 4.475-9.608 0.32-19.364-1.002-29.271-3.967-9.907-2.96-19.495-8.084-28.765-15.366-7.259-5.968-16.351-14.074-27.272-24.321-10.922-10.242-20.353-19.004-28.285-26.285l185.54-185.543c4.635 3.978 9.598 8.613 14.893 13.905 4.631 4.637 10.096 9.927 16.378 15.875 6.289 5.948 13.402 12.893 21.336 20.827 7.281 7.916 12.572 16.182 15.876 24.795 3.304 8.618 4.952 17.222 4.951 25.817 0.001 8.588-0.823 16.858-2.473 24.792zM259.492 321.729c-14.24-14.228-26.918-26.969-38.055-38.246l186.403-186.403c11.265 11.34 24.313 24.543 39.165 39.609 21.165 21.487 44.976 45.13 71.433 70.931l79.374 80.355 239.633 239.633-185.542 186.527-392.411-392.406z"  horiz-adv-x="1024" />

    
    <glyph glyph-name="rengezhongxin" unicode="&#58954;" d="M875.859032 21.405775c0 3.480264-0.64366 6.779404-1.554402 9.967002-17.210987 129.158638-101.601003 237.046834-217.238696 286.792818 67.214844 46.028313 111.335714 123.316583 111.335714 210.931037 0 141.110855-114.391307 255.503185-255.503185 255.503185-141.109832 0-255.501138-114.391307-255.501138-255.503185 0-87.648223 44.152593-164.962076 111.409392-210.984249-114.538663-49.321312-198.413955-155.690922-216.660528-283.262412-1.659803-4.166903-2.63399-8.6848-2.63399-13.443174l0.333598-3.38305c0-20.119223 16.310477-36.431747 36.430724-36.431747 20.120246 0 36.431747 16.312524 36.431747 36.431747l-0.044002 0.443092 0.73985 0C240.405325 157.685601 355.38094 266.632919 497.329882 274.113287c5.15337-0.310062 10.336416-0.51677 15.568581-0.51677 5.243421 0 10.4367 0.206708 15.601326 0.518816 141.964292-7.463995 256.957303-116.418476 273.959535-255.649518l0.826831 0 0.044002-0.443092c0-20.119223 16.311501-36.431747 36.431747-36.431747s36.431747 16.312524 36.431747 36.431747L875.859032 21.405775zM529.185404 347.347219c-5.372358 0.234337-10.761088 0.409322-16.190751 0.409322-5.502317 0-10.962679-0.173962-16.404622-0.414439-93.169983 8.232498-166.257581 86.373183-166.257581 181.680852 0 100.794637 81.70793 182.503591 182.501544 182.503591 100.793614 0 182.501544-81.708953 182.501544-182.503591C695.336562 433.751101 622.306268 355.628836 529.185404 347.347219z"  horiz-adv-x="1024" />

    
    <glyph glyph-name="pause" unicode="&#59199;" d="M438.274-21.495c0-20.156-16.706-36.864-36.864-36.864l-294.906-0c-20.156 0-36.864 16.706-36.864 36.864l-0 810.991c0 20.156 16.706 36.864 36.864 36.864h294.906c20.156 0 36.864-16.706 36.864-36.864l0-810.991zM954.358-21.495c0-20.156-16.706-36.864-36.864-36.864l-294.905-0c-20.156 0-36.864 16.706-36.864 36.864l-0 810.991c0 20.156 16.706 36.864 36.864 36.864h294.906c20.157 0 36.864-16.706 36.864-36.864l0-810.991z"  horiz-adv-x="1024" />

    
    <glyph glyph-name="huodong" unicode="&#58941;" d="M876.402 728.108h-725.251c-66.721 0-120.872-54.151-120.872-120.872v-441.937c0-66.721 54.151-120.872 120.872-120.872h725.251c66.721 0 120.872 54.151 120.872 120.872v441.937c0 66.721-54.151 120.872-120.872 120.872v0zM936.839 165.298c0-33.421-27.016-60.435-60.435-60.435h-725.251c-33.358 0-60.435 27.016-60.435 60.435v441.937c0 33.358 27.077 60.435 60.435 60.435h725.251c33.421 0 60.435-27.076 60.435-60.435v-441.937zM936.839 165.298z"  horiz-adv-x="1024" />

    
    <glyph glyph-name="play-sign" unicode="&#59266;" d="M512.003 896c-282.755 0-512.003-229.248-512.003-512.003 0-282.749 229.248-511.997 512.003-511.997 282.749 0 511.997 229.248 511.997 511.997 0 282.755-229.248 512.003-511.997 512.003v0zM653.838 344.256l-243.262-158.945c-37.856-21.84-68.819-3.97-68.819 39.746l-0 317.887c0 43.681 30.963 61.601 68.819 39.711l243.262-158.945c37.856-21.836 37.856-57.583 0-79.454v0zM653.838 344.256z"  horiz-adv-x="1024" />

    
    <glyph glyph-name="p-setplace" unicode="&#59101;" d="M355.472 92.51c-15.454 0-27.56 12.108-27.56 27.562l-0 441.215c0 7.71 3.471 14.878 9.776 20.183 5.575 4.69 12.789 7.379 19.796 7.38 7.988-0.001 15.64-3.518 20.469-9.409 4.381-5.347 6.179-12.077 5.082-18.984v-440.386c0-15.455-12.107-27.562-27.562-27.562zM681.629 308.231c-36.354 0-64.004 16.258-88.397 30.601 0 0-3.647 2.142-4.896 2.872-1.943 1.043-4.039 2.186-6.121 3.322l-0.189 0.103c-22.161 12.089-43.088 23.506-77.567 23.506-16.667 0-34.834-7.928-52.533-22.927-13.757-11.658-22.007-23.004-22.351-23.481l-0.933-1.349-1.302-1.133c-3.195-2.777-7.433-4.126-12.957-4.126-6.469 0-13.677 1.97-16.475 2.818l-3.929 1.189-2.647 3.138c-4.357 5.164-5.548 13.155-5.781 18.951-0.327 8.164 1.057 15.8 3.704 20.43l0.688 1.2 1.601 1.839c16.24 18.815 59.97 62.604 114.93 62.604 46.661 0 77.402-13.422 104.888-27.17 6.689-3.343 13.174-7.241 19.445-11.011 14.985-9.013 30.479-18.332 46.893-18.332 1.055 0 2.138 0.039 3.218 0.115 15.687 0.732 29.96 9.030 43.713 25.374 10.546 12.53 19.91 28.515 29.184 45.485-11.694-2.767-25.554-3.894-46.086-3.897l-0.246 0.002c-41.686 1.631-60.075 21.698-79.543 42.943-6.501 7.095-13.217 14.423-20.598 20.222-7.205 5.765-13.46 11.575-19.508 17.194-18.35 17.046-35.669 33.137-69.284 33.137-28.576 0-51.264-12.644-65.265-23.251-15.049-11.402-23.022-22.209-23.664-23.097-1.793-2.667-6.144-7.065-15.328-7.065-8.124 0-16.792 3.354-21.778 6.679-5.663 3.768-8.42 11.239-7.971 21.604 0.317 7.299 2.133 14.361 4.856 18.892l0.609 1.008 1.36 1.593c15.885 18.865 60.106 62.785 127.182 62.785 63.11 0 96.31-27.973 127.474-59.137 8.652-8.651 14.472-16.736 20.101-24.557 12.476-17.335 20-27.789 49.567-27.789 28.983 0 52.441 10.731 67.015 19.732 15.166 9.37 23.701 18.429 24.625 19.432l0.354 0.369c4.844 4.737 12.175 7.564 19.607 7.564 2.326 0 4.573-0.28 6.68-0.834l3.030-0.795 2.395-2.025c8.129-6.871 9.674-20.154 3.798-32.39-0.204-0.756-0.574-2.258-0.798-3.166-2.587-10.497-8.619-34.977-22.784-65.443-17.742-38.154-41.715-71.687-71.255-99.67-21.205-21.214-34.045-34.057-66.73-34.057zM511.724-108.145c-66.65 0-131.316 13.059-192.205 38.813-58.801 24.871-111.605 60.47-156.945 105.812-45.342 45.342-80.942 98.146-105.813 156.944-25.752 60.884-38.809 125.552-38.809 192.206 0 66.653 13.058 131.319 38.809 192.204 24.871 58.801 60.472 111.606 105.813 156.947 45.341 45.342 98.146 80.942 156.947 105.813 60.883 25.752 125.55 38.809 192.203 38.809 66.653 0 131.321-13.058 192.207-38.809 58.798-24.871 111.603-60.471 156.944-105.813 45.342-45.34 80.942-98.144 105.812-156.947 25.756-60.888 38.813-125.555 38.813-192.204 0-66.648-13.059-131.315-38.813-192.206-24.867-58.797-60.468-111.602-105.812-156.944-45.343-45.344-98.146-80.944-156.944-105.812-60.89-25.755-125.559-38.813-192.207-38.813zM511.724 816.69c-58.201 0-114.651-11.395-167.781-33.87-51.329-21.709-97.431-52.793-137.024-92.386-39.595-39.595-70.677-85.696-92.386-137.021-22.474-53.133-33.87-109.584-33.87-167.784s11.395-114.65 33.87-167.782c21.708-51.327 52.792-97.429 92.386-137.023 39.597-39.596 85.698-70.679 137.022-92.387 53.133-22.471 109.584-33.864 167.783-33.864 58.201 0 114.65 11.393 167.781 33.864 51.327 21.709 97.428 52.795 137.025 92.387 39.594 39.595 70.677 85.695 92.387 137.023 22.471 53.131 33.864 109.583 33.864 167.782 0 58.2-11.393 114.65-33.864 167.784-21.71 51.325-52.794 97.425-92.387 137.021-39.598 39.596-85.7 70.679-137.025 92.386-53.131 22.474-109.581 33.87-167.781 33.87z"  horiz-adv-x="1024" />

    
    <glyph glyph-name="step-forward" unicode="&#59274;" d="M772.24 670.338v-573.031h104.187v573.031h-104.187zM147.571 45.417l624.617 338.583-624.617 338.583v-677.167z"  horiz-adv-x="1024" />

    
    <glyph glyph-name="step-backward" unicode="&#59273;" d="M148.311 669.776v-571.908h103.984v571.908h-103.984zM252.296 384l623.392-337.92v675.841l-623.392-337.92z"  horiz-adv-x="1024" />

    
    <glyph glyph-name="briefcase" unicode="&#59284;" d="M635.2 384c3.2-9.6 4.8-20.8 4.8-32 0-70.4-57.6-128-128-128-70.4 0-128 57.6-128 128 0 11.2 1.6 22.4 4.8 32h-388.8v-352c0-70.4 57.6-128 128-128h768c70.4 0 128 57.6 128 128v352h-388.8zM896 736h-192v64c0 35.2-28.8 64-64 64h-256c-35.2 0-64-28.8-64-64v-64h-192c-70.4 0-128-57.6-128-128v-160h1024v160c0 70.4-57.6 128-128 128zM640 736c-19.2 0-236.8 0-256 0v32c0 17.6 14.4 32 32 32h192c17.6 0 32-14.4 32-32v-32zM576 352c0 11.2-3.2 22.4-9.6 32h-110.4c-4.8-9.6-9.6-20.8-9.6-32 0-35.2 28.8-64 64-64s65.6 28.8 65.6 64z"  horiz-adv-x="1024" />

    
    </font>
</defs>
</svg>
